<svg width="1280" height="120" viewBox="0 0 1280 120" fill="none" xmlns="http://www.w3.org/2000/svg">
<g clip-path="url(#clip0_85_289)">
<g filter="url(#filter0_d_85_289)">
<rect y="40" width="1280" height="80" fill="#000908"/>
</g>
<path d="M124.095 77.2175H121.57C121.412 77.2175 121.202 77.1125 121.202 76.955C121.202 76.9025 121.202 76.9025 121.202 76.85V65.93C121.202 64.9325 120.886 63.935 120.308 63.1475C119.624 62.3075 118.571 61.8875 117.519 61.94C116.993 61.94 116.52 62.045 116.046 62.3075C115.625 62.5175 115.204 62.8325 114.889 63.2C114.573 63.5675 114.31 63.9875 114.152 64.46C113.994 64.9325 113.889 65.4575 113.889 65.93V76.85C113.889 77.1125 113.784 77.27 113.521 77.27H111.048C110.785 77.27 110.627 77.165 110.627 76.9025V65.93C110.627 64.9325 110.364 63.935 109.785 63.1475C109.207 62.36 108.312 61.94 107.05 61.94C106.524 61.94 105.945 62.045 105.471 62.255C104.945 62.4125 104.524 62.7275 104.209 63.095C103.893 63.4625 103.683 63.935 103.525 64.355C103.367 64.8275 103.262 65.3525 103.262 65.8775V76.7975C103.262 77.06 103.157 77.2175 102.894 77.2175H100.421C100.158 77.2175 100 77.1125 100 76.85V65.93C100 64.985 100.158 64.0925 100.473 63.2C100.789 62.4125 101.21 61.6775 101.841 61.0475C102.42 60.4175 103.209 59.8925 103.998 59.5775C104.945 59.21 105.945 59.0525 106.997 59.0525C107.997 59.0525 108.996 59.2625 109.891 59.6825C110.68 60.1025 111.416 60.6275 111.995 61.31C112.153 61.52 112.311 61.52 112.469 61.3625C113.047 60.68 113.784 60.155 114.626 59.735C115.573 59.2625 116.677 59.0525 117.73 59.0525C118.729 59.0525 119.781 59.21 120.728 59.5775C121.518 59.8925 122.254 60.365 122.833 60.995C123.412 61.625 123.832 62.36 124.095 63.1475C124.358 64.04 124.516 64.985 124.516 65.8775V76.745C124.464 77.1125 124.358 77.2175 124.095 77.2175ZM151.979 70.55C151.979 72.755 151.347 74.435 150.032 75.6425C148.717 76.85 146.981 77.4275 144.771 77.4275C142.509 77.4275 140.72 76.85 139.458 75.6425C138.195 74.435 137.564 72.755 137.564 70.55V65.8775C137.564 63.7775 138.195 62.0975 139.405 60.89C140.615 59.6825 142.404 59.0525 144.719 59.0525C147.033 59.0525 148.822 59.63 150.085 60.8375C151.347 62.045 151.979 63.725 151.979 65.8775V70.55ZM148.717 65.8775C148.77 64.8275 148.401 63.7775 147.77 62.99C147.139 62.255 146.139 61.8875 144.824 61.835C143.772 61.7825 142.719 62.2025 141.983 62.9375C141.246 63.725 140.878 64.775 140.931 65.825V70.55C140.878 71.6 141.194 72.5975 141.825 73.4375C142.404 74.1725 143.403 74.5925 144.824 74.5925C146.244 74.5925 147.244 74.225 147.823 73.49C148.401 72.7025 148.717 71.6525 148.717 70.6025V65.8775ZM167.814 59.3675C168.077 59.3675 168.235 59.4725 168.235 59.735V61.6775C168.235 61.7825 168.288 61.8875 168.393 61.94C168.498 61.9925 168.604 61.94 168.709 61.7825C169.235 61.0475 169.866 60.47 170.655 59.945C171.497 59.3675 172.497 59.105 173.496 59.105C173.654 59.105 173.865 59.105 174.128 59.105C174.285 59.105 174.443 59.1575 174.601 59.21C174.812 59.2625 174.969 59.315 174.969 59.42C175.022 59.525 175.022 59.6825 174.969 59.7875L174.496 62.2025C174.443 62.4125 174.391 62.57 174.285 62.57C174.18 62.6225 174.075 62.6225 173.97 62.57C173.602 62.465 173.181 62.465 172.812 62.465C171.287 62.465 170.235 62.885 169.603 63.7775C168.972 64.775 168.656 65.93 168.709 67.085V76.7975C168.709 77.06 168.604 77.2175 168.341 77.2175H165.763C165.5 77.2175 165.342 77.1125 165.342 76.85V59.735C165.342 59.4725 165.447 59.315 165.71 59.315L167.814 59.3675ZM200.327 68.03C200.327 68.2925 200.222 68.555 200.064 68.765C199.907 68.9225 199.749 69.0275 199.538 69.0275H189.963C189.753 69.0275 189.595 69.08 189.437 69.2375C189.279 69.395 189.227 69.5525 189.227 69.7625V70.55C189.227 71.075 189.279 71.6 189.437 72.125C189.7 73.1225 190.384 73.9625 191.331 74.33C191.91 74.54 192.541 74.645 193.173 74.645C193.962 74.645 194.698 74.435 195.382 74.0675C196.066 73.7 196.645 73.175 197.066 72.545C197.223 72.2825 197.539 72.23 197.802 72.335C197.855 72.335 197.855 72.3875 197.907 72.3875L199.328 73.385C199.644 73.595 199.749 73.805 199.644 74.015C199.065 75.17 198.118 76.0625 196.96 76.5875C195.803 77.1125 194.54 77.4275 193.225 77.375C191.016 77.375 189.227 76.745 187.912 75.5375C186.544 74.2775 185.86 72.4925 185.912 70.655V66.035C185.912 65.0375 186.07 64.0925 186.438 63.2C186.754 62.36 187.28 61.5725 187.912 60.9425C188.543 60.3125 189.332 59.84 190.174 59.525C191.068 59.1575 192.068 59 193.067 59C194.067 59 195.066 59.1575 196.013 59.525C196.855 59.84 197.644 60.3125 198.328 60.9425C198.96 61.5725 199.433 62.36 199.749 63.2C200.117 64.0925 200.275 65.09 200.275 66.035L200.327 68.03ZM193.173 61.8875C191.121 61.7825 189.437 63.3575 189.332 65.405C189.332 65.51 189.332 65.5625 189.332 65.6675V65.93C189.332 66.035 189.385 66.1925 189.437 66.245C189.542 66.35 189.753 66.4025 189.911 66.4025H196.645C196.908 66.4025 197.066 66.245 197.066 65.93V65.5625C197.066 64.6175 196.75 63.6725 196.066 62.9375C195.33 62.2025 194.225 61.7825 193.173 61.8875ZM227.369 70.55C227.369 72.755 226.738 74.435 225.423 75.6425C224.107 76.85 222.371 77.4275 220.162 77.4275C217.899 77.4275 216.111 76.85 214.848 75.6425C213.585 74.435 212.954 72.755 212.954 70.55V65.8775C212.954 63.7775 213.585 62.0975 214.795 60.89C216.005 59.63 217.794 59.0525 220.109 59.0525C222.424 59.0525 224.212 59.63 225.475 60.8375C226.738 62.045 227.369 63.725 227.369 65.8775V70.55ZM224.055 65.8775C224.107 64.8275 223.739 63.83 223.108 62.99C222.476 62.255 221.477 61.835 220.162 61.835C219.109 61.7825 218.057 62.2025 217.321 62.9375C216.584 63.725 216.216 64.775 216.268 65.825V70.55C216.216 71.6 216.531 72.5975 217.163 73.4375C217.741 74.1725 218.741 74.5925 220.162 74.5925C221.582 74.5925 222.529 74.225 223.16 73.4375C223.792 72.5975 224.16 71.5475 224.107 70.4975V65.8775H224.055ZM254.621 77.2175H252.096C251.938 77.2175 251.728 77.1125 251.728 76.955C251.728 76.9025 251.728 76.9025 251.728 76.85V65.93C251.78 64.88 251.412 63.83 250.728 63.0425C249.939 62.255 248.887 61.835 247.782 61.8875C246.73 61.835 245.677 62.255 244.888 62.99C244.152 63.7775 243.783 64.8275 243.836 65.8775V76.7975C243.889 77.0075 243.731 77.165 243.52 77.2175C243.468 77.2175 243.468 77.2175 243.415 77.2175H240.995C240.732 77.2175 240.574 77.1125 240.574 76.85V59.735C240.574 59.4725 240.679 59.315 240.943 59.315H243.31C243.468 59.315 243.626 59.42 243.678 59.5775C243.678 59.63 243.678 59.63 243.678 59.6825V60.3125C243.678 60.575 243.783 60.68 243.941 60.68C244.047 60.6275 244.152 60.575 244.257 60.5225C245.414 59.5775 246.835 59.0525 248.361 59.105C250.412 59.105 252.043 59.735 253.201 60.9425C254.411 62.3075 255.095 64.0925 254.989 65.8775V76.7975C254.989 77.1125 254.884 77.2175 254.621 77.2175Z" fill="#28B0A9"/>
<path d="M121.886 100.527C121.939 100.737 121.781 100.947 121.57 100.947C121.518 100.947 121.518 100.947 121.465 100.947H119.729C119.518 101 119.308 100.842 119.308 100.632C119.308 100.58 119.308 100.58 119.308 100.527V90.1324C119.255 89.9224 119.413 89.7124 119.624 89.7124C119.676 89.7124 119.676 89.7124 119.729 89.7124H126.147C126.253 89.7124 126.358 89.7649 126.41 89.8174C126.516 89.9224 126.516 90.0274 126.516 90.1324V91.6024C126.516 91.8649 126.41 92.0224 126.147 92.0224H122.254C122.096 92.0224 121.991 92.0749 121.939 92.1274C121.886 92.1799 121.886 92.2849 121.886 92.3374V93.7549C121.886 93.8599 121.886 93.9649 121.939 94.0174C121.991 94.0699 122.096 94.1224 122.254 94.1224H125.358C125.569 94.1224 125.726 94.2274 125.779 94.4374C125.779 94.4899 125.779 94.4899 125.779 94.5424V96.0124C125.779 96.3274 125.674 96.4324 125.358 96.4324H122.254C122.149 96.4324 122.044 96.4324 121.939 96.5374C121.886 96.6424 121.833 96.7474 121.833 96.9049L121.886 100.527Z" fill="white"/>
<path d="M137.984 100.947C137.669 100.947 137.563 100.842 137.563 100.58V90.0799C137.563 89.8174 137.721 89.7124 137.984 89.7124H139.72C139.826 89.7124 139.931 89.7124 140.036 89.8174C140.141 89.8699 140.194 90.0274 140.141 90.1324V100.632C140.141 100.895 139.984 101 139.72 101H137.984V100.947Z" fill="white"/>
<path d="M158.976 91.9174C158.923 92.0224 158.818 92.0224 158.713 92.0224H156.819C156.714 92.0224 156.556 92.0224 156.503 92.1274C156.451 92.1799 156.451 92.2849 156.451 92.3899L156.398 100.632C156.398 100.895 156.24 101 155.925 101H154.188C154.083 101 153.978 101 153.873 100.895C153.768 100.842 153.715 100.737 153.768 100.632V92.3899C153.768 92.2849 153.768 92.2324 153.715 92.1274C153.662 92.0749 153.557 92.0224 153.399 92.0224H151.716C151.611 92.0224 151.505 91.9699 151.4 91.9174C151.348 91.8124 151.295 91.7074 151.295 91.6024V90.1849C151.295 90.0799 151.295 89.9749 151.4 89.8699C151.453 89.7649 151.611 89.7649 151.716 89.7649H158.713C158.923 89.7649 159.081 89.9224 159.081 90.1849V91.6024C159.029 91.7074 158.976 91.8124 158.976 91.9174Z" fill="white"/>
<path d="M177.916 100.947H176.758C176.653 100.947 176.495 100.947 176.39 100.947C176.285 100.947 176.18 100.842 176.074 100.685L172.707 95.2774C172.707 95.2774 172.707 95.2249 172.655 95.2774V95.3299V100.632C172.655 100.737 172.602 100.842 172.549 100.895C172.444 100.947 172.339 100.947 172.181 100.947H170.603C170.498 100.947 170.392 100.947 170.287 100.895C170.182 100.842 170.129 100.737 170.182 100.632V90.1324C170.182 89.8699 170.34 89.7124 170.656 89.7124H171.866C172.023 89.7124 172.129 89.7124 172.286 89.7649C172.392 89.8699 172.497 89.9749 172.549 90.0799L175.811 95.4874C175.811 95.5399 175.864 95.5399 175.864 95.5399L175.917 95.4874V90.0799C175.917 89.8174 176.074 89.7124 176.39 89.7124H177.968C178.074 89.7124 178.179 89.7124 178.284 89.8174C178.389 89.8699 178.442 90.0274 178.389 90.1324V100.58C178.389 100.842 178.231 100.947 177.916 100.947Z" fill="white"/>
<path d="M197.066 98.6374C197.329 98.6374 197.434 98.7949 197.434 99.0574V100.527C197.434 100.842 197.329 100.947 197.066 100.947H190.647C190.437 101 190.227 100.842 190.227 100.632C190.227 100.58 190.227 100.58 190.227 100.527V90.1324C190.174 89.9224 190.332 89.7124 190.542 89.7124C190.595 89.7124 190.595 89.7124 190.647 89.7124H196.908C197.171 89.7124 197.276 89.8174 197.276 90.1324V91.6024C197.276 91.8649 197.171 92.0224 196.908 92.0224H193.225C193.12 92.0224 192.962 92.0224 192.857 92.1274C192.804 92.1799 192.752 92.2849 192.804 92.3899V93.6499C192.804 93.7549 192.804 93.9124 192.91 94.0174C193.015 94.1224 193.12 94.1224 193.278 94.1224H196.329C196.435 94.1224 196.54 94.1749 196.645 94.2274C196.698 94.3324 196.75 94.4374 196.75 94.5424V95.9599C196.75 96.0649 196.75 96.1699 196.645 96.2749C196.592 96.3799 196.435 96.4324 196.329 96.3799H193.225C193.067 96.3799 192.962 96.4324 192.91 96.4849C192.857 96.5899 192.804 96.6949 192.857 96.7999V98.2699C192.857 98.4274 192.91 98.5324 192.962 98.5849C193.067 98.6374 193.225 98.6899 193.383 98.6374H197.066Z" fill="white"/>
<path d="M216.584 97.5875C216.637 98.585 216.163 99.53 215.426 100.16C215.058 100.475 214.637 100.685 214.164 100.79C213.69 100.947 213.164 101 212.638 101C211.954 101 211.27 100.895 210.639 100.685C209.902 100.475 209.271 100.107 208.692 99.635C208.535 99.53 208.429 99.4249 208.377 99.2674C208.324 99.1624 208.429 99.0049 208.587 98.7949L209.324 97.7975C209.482 97.5875 209.639 97.535 209.745 97.535C209.902 97.5875 210.008 97.6399 210.113 97.6924C210.323 97.8499 210.534 97.955 210.744 98.06C210.955 98.165 211.218 98.27 211.428 98.375C211.639 98.48 211.849 98.5325 212.112 98.585C212.27 98.6375 212.48 98.6375 212.638 98.6375C212.901 98.6375 213.164 98.6374 213.375 98.5324C213.533 98.4799 213.69 98.4275 213.796 98.3225C213.901 98.2175 213.953 98.1124 214.006 98.0074C214.059 97.9024 214.059 97.7974 214.059 97.6924C214.059 97.2724 213.743 96.8524 213.375 96.6949C212.743 96.3799 212.112 96.1174 211.428 95.9074C211.112 95.8024 210.744 95.645 210.429 95.4875C210.113 95.33 209.85 95.1199 209.639 94.8574C209.429 94.5949 209.218 94.28 209.113 93.965C208.955 93.5975 208.903 93.1775 208.903 92.81C208.903 92.3375 209.008 91.865 209.218 91.445C209.429 91.025 209.692 90.71 210.008 90.395C210.376 90.08 210.744 89.87 211.218 89.7125C211.691 89.555 212.165 89.45 212.691 89.45C213.322 89.45 214.006 89.5025 214.637 89.7125C215.111 89.87 215.532 90.0275 215.9 90.29C216.005 90.3425 216.11 90.4475 216.163 90.5525C216.163 90.6575 216.163 90.7625 216.005 91.025L215.479 92.075C215.426 92.285 215.163 92.4425 214.9 92.3375C214.848 92.3375 214.848 92.3374 214.848 92.2849C214.585 92.1799 214.216 92.0224 213.848 91.9174C213.48 91.8124 213.112 91.7075 212.743 91.7075C212.428 91.7075 212.165 91.7599 211.902 91.9174C211.639 92.0749 211.481 92.3899 211.533 92.7049C211.533 92.9149 211.586 93.0724 211.744 93.2299C211.849 93.3874 212.007 93.4925 212.165 93.5975C212.322 93.7025 212.533 93.755 212.691 93.86L213.164 94.0174L214.374 94.4375C214.795 94.595 215.163 94.8049 215.532 95.0674C215.9 95.3299 216.216 95.645 216.479 96.0125C216.531 96.59 216.637 97.115 216.584 97.5875Z" fill="white"/>
<path d="M235.681 97.5874C235.681 98.1124 235.576 98.6374 235.366 99.0574C235.155 99.4774 234.892 99.8449 234.524 100.107C234.156 100.422 233.735 100.632 233.261 100.737C232.788 100.895 232.262 100.947 231.736 100.947C231.052 100.947 230.368 100.842 229.684 100.632C228.947 100.422 228.316 100.055 227.737 99.5824C227.579 99.4774 227.474 99.3724 227.422 99.2149C227.422 99.0574 227.474 98.8999 227.632 98.7424L228.369 97.9024C228.526 97.6924 228.684 97.6399 228.789 97.6399C228.947 97.6924 229.053 97.7449 229.158 97.7974C229.368 97.9549 229.579 98.0599 229.789 98.1649C230 98.2699 230.263 98.3749 230.473 98.4799C230.683 98.5849 230.894 98.6374 231.157 98.6899C231.315 98.7424 231.525 98.7424 231.683 98.7424C231.946 98.7424 232.157 98.7424 232.42 98.6374C232.577 98.5849 232.735 98.5324 232.84 98.4274C232.946 98.3224 232.998 98.2174 233.051 98.1124C233.051 98.0074 233.104 97.9024 233.104 97.7974C233.104 97.3774 232.788 96.9574 232.42 96.7999C231.788 96.4849 231.157 96.2224 230.473 96.0124C230.157 95.9074 229.789 95.7499 229.473 95.5924C229.158 95.4349 228.895 95.2249 228.632 94.9624C228.421 94.6999 228.211 94.3849 228.106 94.0699C227.948 93.7024 227.895 93.2824 227.895 92.9149C227.895 92.4424 228 91.9699 228.211 91.5499C228.421 91.1299 228.684 90.8149 229.053 90.4999C229.421 90.1849 229.789 89.9749 230.263 89.8174C230.736 89.6599 231.21 89.5549 231.736 89.5549C232.367 89.5549 233.051 89.6074 233.682 89.8174C234.156 89.9224 234.577 90.1324 234.997 90.3949C235.103 90.4474 235.208 90.5524 235.261 90.6574C235.313 90.7624 235.261 90.8674 235.103 91.1299L234.577 92.1799C234.524 92.3899 234.261 92.5474 233.998 92.4424C233.945 92.4424 233.945 92.4424 233.945 92.3899C233.63 92.2324 233.261 92.1274 232.946 92.0224C232.577 91.9174 232.209 91.8124 231.841 91.8124C231.525 91.8124 231.262 91.8649 230.999 92.0224C230.736 92.1799 230.578 92.4949 230.631 92.8099C230.631 93.0199 230.683 93.1774 230.841 93.3349C230.947 93.4924 231.104 93.5974 231.262 93.7024C231.42 93.8074 231.63 93.8599 231.788 93.9649L232.262 94.1224L233.472 94.5424C233.893 94.6999 234.261 94.9099 234.629 95.1724C234.997 95.4349 235.261 95.7499 235.524 96.1174C235.576 96.5899 235.734 97.1149 235.681 97.5874Z" fill="white"/>
<path d="M319.95 86.084C318.979 86.084 318.097 85.8693 317.304 85.44C316.52 85.0013 315.904 84.404 315.456 83.648C315.017 82.892 314.798 82.0427 314.798 81.1C314.798 80.1573 315.017 79.308 315.456 78.552C315.904 77.796 316.52 77.2033 317.304 76.774C318.097 76.3353 318.979 76.116 319.95 76.116C320.921 76.116 321.793 76.3307 322.568 76.76C323.352 77.1893 323.968 77.7867 324.416 78.552C324.864 79.308 325.088 80.1573 325.088 81.1C325.088 82.0427 324.864 82.8967 324.416 83.662C323.968 84.418 323.352 85.0107 322.568 85.44C321.793 85.8693 320.921 86.084 319.95 86.084ZM319.95 85.16C320.725 85.16 321.425 84.9873 322.05 84.642C322.675 84.2873 323.165 83.802 323.52 83.186C323.875 82.5607 324.052 81.8653 324.052 81.1C324.052 80.3347 323.875 79.644 323.52 79.028C323.165 78.4027 322.675 77.9173 322.05 77.572C321.425 77.2173 320.725 77.04 319.95 77.04C319.175 77.04 318.471 77.2173 317.836 77.572C317.211 77.9173 316.716 78.4027 316.352 79.028C315.997 79.644 315.82 80.3347 315.82 81.1C315.82 81.8653 315.997 82.5607 316.352 83.186C316.716 83.802 317.211 84.2873 317.836 84.642C318.471 84.9873 319.175 85.16 319.95 85.16ZM333.66 82.724H331.98V86H330.986V78.636H331.98V81.87H333.674L336.264 78.636H337.342L334.444 82.206L337.552 86H336.376L333.66 82.724ZM345.141 78.636V86H344.147V79.518H340.619L340.521 81.338C340.446 82.8687 340.269 84.0447 339.989 84.866C339.709 85.6873 339.21 86.098 338.491 86.098C338.295 86.098 338.057 86.0607 337.777 85.986L337.847 85.132C338.015 85.1693 338.132 85.188 338.197 85.188C338.58 85.188 338.869 85.0107 339.065 84.656C339.261 84.3013 339.392 83.8627 339.457 83.34C339.522 82.8173 339.578 82.1267 339.625 81.268L339.751 78.636H345.141ZM354.225 78.636L350.543 86.882C350.244 87.5727 349.899 88.0627 349.507 88.352C349.115 88.6413 348.643 88.786 348.093 88.786C347.738 88.786 347.407 88.73 347.099 88.618C346.791 88.506 346.525 88.338 346.301 88.114L346.763 87.372C347.136 87.7453 347.584 87.932 348.107 87.932C348.443 87.932 348.727 87.8387 348.961 87.652C349.203 87.4653 349.427 87.148 349.633 86.7L349.955 85.986L346.665 78.636H347.701L350.473 84.894L353.245 78.636H354.225ZM359.234 78.818C359.915 78.818 360.522 78.972 361.054 79.28C361.595 79.5787 362.015 80.0033 362.314 80.554C362.613 81.0953 362.762 81.716 362.762 82.416C362.762 83.1347 362.603 83.774 362.286 84.334C361.978 84.8847 361.544 85.314 360.984 85.622C360.424 85.93 359.78 86.084 359.052 86.084C357.829 86.084 356.882 85.6547 356.21 84.796C355.538 83.9373 355.202 82.752 355.202 81.24C355.202 79.6627 355.501 78.454 356.098 77.614C356.705 76.774 357.647 76.2047 358.926 75.906L362.23 75.15L362.398 76.06L359.29 76.774C358.235 77.0073 357.461 77.4227 356.966 78.02C356.471 78.608 356.201 79.4807 356.154 80.638C356.453 80.0687 356.868 79.6253 357.4 79.308C357.932 78.9813 358.543 78.818 359.234 78.818ZM359.08 85.258C359.593 85.258 360.051 85.1413 360.452 84.908C360.863 84.6653 361.18 84.3293 361.404 83.9C361.637 83.4707 361.754 82.9853 361.754 82.444C361.754 81.9027 361.642 81.4267 361.418 81.016C361.194 80.6053 360.877 80.288 360.466 80.064C360.065 79.8307 359.603 79.714 359.08 79.714C358.557 79.714 358.091 79.8307 357.68 80.064C357.279 80.288 356.961 80.6053 356.728 81.016C356.504 81.4267 356.392 81.9027 356.392 82.444C356.392 82.9853 356.504 83.4707 356.728 83.9C356.961 84.3293 357.283 84.6653 357.694 84.908C358.105 85.1413 358.567 85.258 359.08 85.258ZM371.333 82.626H365.173C365.229 83.3913 365.523 84.012 366.055 84.488C366.587 84.9547 367.259 85.188 368.071 85.188C368.528 85.188 368.948 85.1087 369.331 84.95C369.713 84.782 370.045 84.5393 370.325 84.222L370.885 84.866C370.558 85.258 370.147 85.5567 369.653 85.762C369.167 85.9673 368.631 86.07 368.043 86.07C367.287 86.07 366.615 85.9113 366.027 85.594C365.448 85.2673 364.995 84.8193 364.669 84.25C364.342 83.6807 364.179 83.0367 364.179 82.318C364.179 81.5993 364.333 80.9553 364.641 80.386C364.958 79.8167 365.387 79.3733 365.929 79.056C366.479 78.7387 367.095 78.58 367.777 78.58C368.458 78.58 369.069 78.7387 369.611 79.056C370.152 79.3733 370.577 79.8167 370.885 80.386C371.193 80.946 371.347 81.59 371.347 82.318L371.333 82.626ZM367.777 79.434C367.067 79.434 366.47 79.6627 365.985 80.12C365.509 80.568 365.238 81.156 365.173 81.884H370.395C370.329 81.156 370.054 80.568 369.569 80.12C369.093 79.6627 368.495 79.434 367.777 79.434Z" fill="white" fill-opacity="0.8"/>
<path d="M422.882 77.096H417.66L417.674 86H416.652V76.2H422.882V77.096ZM426.96 78.58C427.921 78.58 428.658 78.8227 429.172 79.308C429.685 79.784 429.942 80.4933 429.942 81.436V86H428.99V84.852C428.766 85.2347 428.434 85.5333 427.996 85.748C427.566 85.9627 427.053 86.07 426.456 86.07C425.634 86.07 424.981 85.874 424.496 85.482C424.01 85.09 423.768 84.572 423.768 83.928C423.768 83.3027 423.992 82.7987 424.44 82.416C424.897 82.0333 425.62 81.842 426.61 81.842H428.948V81.394C428.948 80.7593 428.77 80.2787 428.416 79.952C428.061 79.616 427.543 79.448 426.862 79.448C426.395 79.448 425.947 79.5273 425.518 79.686C425.088 79.8353 424.72 80.0453 424.412 80.316L423.964 79.574C424.337 79.2567 424.785 79.014 425.308 78.846C425.83 78.6687 426.381 78.58 426.96 78.58ZM426.61 85.286C427.17 85.286 427.65 85.16 428.052 84.908C428.453 84.6467 428.752 84.2733 428.948 83.788V82.584H426.638C425.378 82.584 424.748 83.0227 424.748 83.9C424.748 84.3293 424.911 84.67 425.238 84.922C425.564 85.1647 426.022 85.286 426.61 85.286ZM438.608 78.636V86H437.614V79.518H434.086L433.988 81.338C433.913 82.8687 433.736 84.0447 433.456 84.866C433.176 85.6873 432.676 86.098 431.958 86.098C431.762 86.098 431.524 86.0607 431.244 85.986L431.314 85.132C431.482 85.1693 431.598 85.188 431.664 85.188C432.046 85.188 432.336 85.0107 432.532 84.656C432.728 84.3013 432.858 83.8627 432.924 83.34C432.989 82.8173 433.045 82.1267 433.092 81.268L433.218 78.636H438.608ZM447.874 82.626H441.714C441.77 83.3913 442.064 84.012 442.596 84.488C443.128 84.9547 443.8 85.188 444.612 85.188C445.069 85.188 445.489 85.1087 445.872 84.95C446.254 84.782 446.586 84.5393 446.866 84.222L447.426 84.866C447.099 85.258 446.688 85.5567 446.194 85.762C445.708 85.9673 445.172 86.07 444.584 86.07C443.828 86.07 443.156 85.9113 442.568 85.594C441.989 85.2673 441.536 84.8193 441.21 84.25C440.883 83.6807 440.72 83.0367 440.72 82.318C440.72 81.5993 440.874 80.9553 441.182 80.386C441.499 79.8167 441.928 79.3733 442.47 79.056C443.02 78.7387 443.636 78.58 444.318 78.58C444.999 78.58 445.61 78.7387 446.152 79.056C446.693 79.3733 447.118 79.8167 447.426 80.386C447.734 80.946 447.888 81.59 447.888 82.318L447.874 82.626ZM444.318 79.434C443.608 79.434 443.011 79.6627 442.526 80.12C442.05 80.568 441.779 81.156 441.714 81.884H446.936C446.87 81.156 446.595 80.568 446.11 80.12C445.634 79.6627 445.036 79.434 444.318 79.434ZM453.882 78.58C454.572 78.58 455.198 78.7387 455.758 79.056C456.318 79.364 456.756 79.8027 457.074 80.372C457.391 80.9413 457.55 81.59 457.55 82.318C457.55 83.0553 457.391 83.7087 457.074 84.278C456.756 84.8473 456.318 85.2907 455.758 85.608C455.207 85.916 454.582 86.07 453.882 86.07C453.284 86.07 452.743 85.9487 452.258 85.706C451.782 85.454 451.39 85.09 451.082 84.614V88.716H450.088V78.636H451.04V80.092C451.338 79.6067 451.73 79.2333 452.216 78.972C452.71 78.7107 453.266 78.58 453.882 78.58ZM453.812 85.188C454.325 85.188 454.792 85.0713 455.212 84.838C455.632 84.5953 455.958 84.2547 456.192 83.816C456.434 83.3773 456.556 82.878 456.556 82.318C456.556 81.758 456.434 81.2633 456.192 80.834C455.958 80.3953 455.632 80.0547 455.212 79.812C454.792 79.5693 454.325 79.448 453.812 79.448C453.289 79.448 452.818 79.5693 452.398 79.812C451.987 80.0547 451.66 80.3953 451.418 80.834C451.184 81.2633 451.068 81.758 451.068 82.318C451.068 82.878 451.184 83.3773 451.418 83.816C451.66 84.2547 451.987 84.5953 452.398 84.838C452.818 85.0713 453.289 85.188 453.812 85.188ZM466.125 82.626H459.965C460.021 83.3913 460.315 84.012 460.847 84.488C461.379 84.9547 462.051 85.188 462.863 85.188C463.321 85.188 463.741 85.1087 464.123 84.95C464.506 84.782 464.837 84.5393 465.117 84.222L465.677 84.866C465.351 85.258 464.94 85.5567 464.445 85.762C463.96 85.9673 463.423 86.07 462.835 86.07C462.079 86.07 461.407 85.9113 460.819 85.594C460.241 85.2673 459.788 84.8193 459.461 84.25C459.135 83.6807 458.971 83.0367 458.971 82.318C458.971 81.5993 459.125 80.9553 459.433 80.386C459.751 79.8167 460.18 79.3733 460.721 79.056C461.272 78.7387 461.888 78.58 462.569 78.58C463.251 78.58 463.862 78.7387 464.403 79.056C464.945 79.3733 465.369 79.8167 465.677 80.386C465.985 80.946 466.139 81.59 466.139 82.318L466.125 82.626ZM462.569 79.434C461.86 79.434 461.263 79.6627 460.777 80.12C460.301 80.568 460.031 81.156 459.965 81.884H465.187C465.122 81.156 464.847 80.568 464.361 80.12C463.885 79.6627 463.288 79.434 462.569 79.434ZM473.791 78.636V86H472.881V83.564H470.571H470.291L468.583 86H467.505L469.339 83.424C468.769 83.2653 468.331 82.9947 468.023 82.612C467.715 82.2293 467.561 81.744 467.561 81.156C467.561 80.3347 467.841 79.7093 468.401 79.28C468.961 78.8507 469.726 78.636 470.697 78.636H473.791ZM468.569 81.184C468.569 82.276 469.264 82.822 470.655 82.822H472.881V79.518H470.725C469.287 79.518 468.569 80.0733 468.569 81.184Z" fill="white"/>
<path d="M522.9 81.506H520.66V86H519.652V76.2H520.66V80.596H522.9L526.218 76.2H527.338L523.698 80.96L527.548 86H526.358L522.9 81.506ZM535.059 78.636V86H534.065V79.518H530.537L530.439 81.338C530.364 82.8687 530.187 84.0447 529.907 84.866C529.627 85.6873 529.128 86.098 528.409 86.098C528.213 86.098 527.975 86.0607 527.695 85.986L527.765 85.132C527.933 85.1693 528.05 85.188 528.115 85.188C528.498 85.188 528.787 85.0107 528.983 84.656C529.179 84.3013 529.31 83.8627 529.375 83.34C529.44 82.8173 529.496 82.1267 529.543 81.268L529.669 78.636H535.059ZM544.143 78.636L540.461 86.882C540.162 87.5727 539.817 88.0627 539.425 88.352C539.033 88.6413 538.561 88.786 538.011 88.786C537.656 88.786 537.325 88.73 537.017 88.618C536.709 88.506 536.443 88.338 536.219 88.114L536.681 87.372C537.054 87.7453 537.502 87.932 538.025 87.932C538.361 87.932 538.645 87.8387 538.879 87.652C539.121 87.4653 539.345 87.148 539.551 86.7L539.873 85.986L536.583 78.636H537.619L540.391 84.894L543.163 78.636H544.143ZM549.152 78.818C549.833 78.818 550.44 78.972 550.972 79.28C551.513 79.5787 551.933 80.0033 552.232 80.554C552.531 81.0953 552.68 81.716 552.68 82.416C552.68 83.1347 552.521 83.774 552.204 84.334C551.896 84.8847 551.462 85.314 550.902 85.622C550.342 85.93 549.698 86.084 548.97 86.084C547.747 86.084 546.8 85.6547 546.128 84.796C545.456 83.9373 545.12 82.752 545.12 81.24C545.12 79.6627 545.419 78.454 546.016 77.614C546.623 76.774 547.565 76.2047 548.844 75.906L552.148 75.15L552.316 76.06L549.208 76.774C548.153 77.0073 547.379 77.4227 546.884 78.02C546.389 78.608 546.119 79.4807 546.072 80.638C546.371 80.0687 546.786 79.6253 547.318 79.308C547.85 78.9813 548.461 78.818 549.152 78.818ZM548.998 85.258C549.511 85.258 549.969 85.1413 550.37 84.908C550.781 84.6653 551.098 84.3293 551.322 83.9C551.555 83.4707 551.672 82.9853 551.672 82.444C551.672 81.9027 551.56 81.4267 551.336 81.016C551.112 80.6053 550.795 80.288 550.384 80.064C549.983 79.8307 549.521 79.714 548.998 79.714C548.475 79.714 548.009 79.8307 547.598 80.064C547.197 80.288 546.879 80.6053 546.646 81.016C546.422 81.4267 546.31 81.9027 546.31 82.444C546.31 82.9853 546.422 83.4707 546.646 83.9C546.879 84.3293 547.201 84.6653 547.612 84.908C548.023 85.1413 548.485 85.258 548.998 85.258ZM554.81 78.636H555.804V81.898H560.438V78.636H561.432V86H560.438V82.752H555.804V86H554.81V78.636ZM567.352 81.24C568.276 81.2493 568.98 81.4547 569.466 81.856C569.951 82.2573 570.194 82.836 570.194 83.592C570.194 84.376 569.932 84.978 569.41 85.398C568.887 85.818 568.14 86.0233 567.17 86.014L564.258 86V78.636H565.252V81.212L567.352 81.24ZM571.426 78.636H572.42V86H571.426V78.636ZM567.114 85.258C567.795 85.2673 568.308 85.132 568.654 84.852C569.008 84.5627 569.186 84.1427 569.186 83.592C569.186 83.0507 569.013 82.6493 568.668 82.388C568.322 82.1267 567.804 81.9913 567.114 81.982L565.252 81.954V85.23L567.114 85.258ZM581.69 82.626H575.53C575.586 83.3913 575.88 84.012 576.412 84.488C576.944 84.9547 577.616 85.188 578.428 85.188C578.885 85.188 579.305 85.1087 579.688 84.95C580.071 84.782 580.402 84.5393 580.682 84.222L581.242 84.866C580.915 85.258 580.505 85.5567 580.01 85.762C579.525 85.9673 578.988 86.07 578.4 86.07C577.644 86.07 576.972 85.9113 576.384 85.594C575.805 85.2673 575.353 84.8193 575.026 84.25C574.699 83.6807 574.536 83.0367 574.536 82.318C574.536 81.5993 574.69 80.9553 574.998 80.386C575.315 79.8167 575.745 79.3733 576.286 79.056C576.837 78.7387 577.453 78.58 578.134 78.58C578.815 78.58 579.427 78.7387 579.968 79.056C580.509 79.3733 580.934 79.8167 581.242 80.386C581.55 80.946 581.704 81.59 581.704 82.318L581.69 82.626ZM578.134 79.434C577.425 79.434 576.827 79.6627 576.342 80.12C575.866 80.568 575.595 81.156 575.53 81.884H580.752C580.687 81.156 580.411 80.568 579.926 80.12C579.45 79.6627 578.853 79.434 578.134 79.434ZM590.242 82.724H588.562V86H587.568V78.636H588.562V81.87H590.256L592.846 78.636H593.924L591.026 82.206L594.134 86H592.958L590.242 82.724ZM598.1 78.58C599.062 78.58 599.799 78.8227 600.312 79.308C600.826 79.784 601.082 80.4933 601.082 81.436V86H600.13V84.852C599.906 85.2347 599.575 85.5333 599.136 85.748C598.707 85.9627 598.194 86.07 597.596 86.07C596.775 86.07 596.122 85.874 595.636 85.482C595.151 85.09 594.908 84.572 594.908 83.928C594.908 83.3027 595.132 82.7987 595.58 82.416C596.038 82.0333 596.761 81.842 597.75 81.842H600.088V81.394C600.088 80.7593 599.911 80.2787 599.556 79.952C599.202 79.616 598.684 79.448 598.002 79.448C597.536 79.448 597.088 79.5273 596.658 79.686C596.229 79.8353 595.86 80.0453 595.552 80.316L595.104 79.574C595.478 79.2567 595.926 79.014 596.448 78.846C596.971 78.6687 597.522 78.58 598.1 78.58ZM597.75 85.286C598.31 85.286 598.791 85.16 599.192 84.908C599.594 84.6467 599.892 84.2733 600.088 83.788V82.584H597.778C596.518 82.584 595.888 83.0227 595.888 83.9C595.888 84.3293 596.052 84.67 596.378 84.922C596.705 85.1647 597.162 85.286 597.75 85.286ZM607.522 78.58C608.213 78.58 608.838 78.7387 609.398 79.056C609.958 79.364 610.397 79.8027 610.714 80.372C611.032 80.9413 611.19 81.59 611.19 82.318C611.19 83.0553 611.032 83.7087 610.714 84.278C610.397 84.8473 609.958 85.2907 609.398 85.608C608.848 85.916 608.222 86.07 607.522 86.07C606.925 86.07 606.384 85.9487 605.898 85.706C605.422 85.454 605.03 85.09 604.722 84.614V88.716H603.728V78.636H604.68V80.092C604.979 79.6067 605.371 79.2333 605.856 78.972C606.351 78.7107 606.906 78.58 607.522 78.58ZM607.452 85.188C607.966 85.188 608.432 85.0713 608.852 84.838C609.272 84.5953 609.599 84.2547 609.832 83.816C610.075 83.3773 610.196 82.878 610.196 82.318C610.196 81.758 610.075 81.2633 609.832 80.834C609.599 80.3953 609.272 80.0547 608.852 79.812C608.432 79.5693 607.966 79.448 607.452 79.448C606.93 79.448 606.458 79.5693 606.038 79.812C605.628 80.0547 605.301 80.3953 605.058 80.834C604.825 81.2633 604.708 81.758 604.708 82.318C604.708 82.878 604.825 83.3773 605.058 83.816C605.301 84.2547 605.628 84.5953 606.038 84.838C606.458 85.0713 606.93 85.188 607.452 85.188ZM618.233 79.518H615.447V86H614.453V79.518H611.667V78.636H618.233V79.518ZM622.764 81.24C623.688 81.2493 624.393 81.4547 624.878 81.856C625.363 82.2573 625.606 82.836 625.606 83.592C625.606 84.376 625.345 84.978 624.822 85.398C624.299 85.818 623.553 86.0233 622.582 86.014L619.67 86V78.636H620.664V81.212L622.764 81.24ZM626.838 78.636H627.832V86H626.838V78.636ZM622.526 85.258C623.207 85.2673 623.721 85.132 624.066 84.852C624.421 84.5627 624.598 84.1427 624.598 83.592C624.598 83.0507 624.425 82.6493 624.08 82.388C623.735 82.1267 623.217 81.9913 622.526 81.982L620.664 81.954V85.23L622.526 85.258Z" fill="white" fill-opacity="0.8"/>
<path d="M683.352 76.2L678.9 84.446C678.583 85.034 678.209 85.4727 677.78 85.762C677.36 86.042 676.898 86.182 676.394 86.182C676.021 86.182 675.619 86.0933 675.19 85.916L675.484 85.076C675.82 85.2067 676.128 85.272 676.408 85.272C677.052 85.272 677.579 84.922 677.99 84.222L678.27 83.746L674.294 76.2H675.4L678.816 82.836L682.316 76.2H683.352ZM687.244 86.07C686.516 86.07 685.863 85.9113 685.284 85.594C684.715 85.2767 684.267 84.8333 683.94 84.264C683.613 83.6853 683.45 83.0367 683.45 82.318C683.45 81.5993 683.613 80.9553 683.94 80.386C684.267 79.8167 684.715 79.3733 685.284 79.056C685.863 78.7387 686.516 78.58 687.244 78.58C687.879 78.58 688.443 78.706 688.938 78.958C689.442 79.2007 689.839 79.56 690.128 80.036L689.386 80.54C689.143 80.176 688.835 79.9053 688.462 79.728C688.089 79.5413 687.683 79.448 687.244 79.448C686.712 79.448 686.231 79.5693 685.802 79.812C685.382 80.0453 685.051 80.3813 684.808 80.82C684.575 81.2587 684.458 81.758 684.458 82.318C684.458 82.8873 684.575 83.3913 684.808 83.83C685.051 84.2593 685.382 84.5953 685.802 84.838C686.231 85.0713 686.712 85.188 687.244 85.188C687.683 85.188 688.089 85.0993 688.462 84.922C688.835 84.7447 689.143 84.474 689.386 84.11L690.128 84.614C689.839 85.09 689.442 85.454 688.938 85.706C688.434 85.9487 687.869 86.07 687.244 86.07ZM697.827 78.636V86H696.833V79.518H693.305L693.207 81.338C693.132 82.8687 692.955 84.0447 692.675 84.866C692.395 85.6873 691.895 86.098 691.177 86.098C690.981 86.098 690.743 86.0607 690.463 85.986L690.533 85.132C690.701 85.1693 690.817 85.188 690.883 85.188C691.265 85.188 691.555 85.0107 691.751 84.656C691.947 84.3013 692.077 83.8627 692.143 83.34C692.208 82.8173 692.264 82.1267 692.311 81.268L692.437 78.636H697.827ZM706.91 78.636L703.228 86.882C702.93 87.5727 702.584 88.0627 702.192 88.352C701.8 88.6413 701.329 88.786 700.778 88.786C700.424 88.786 700.092 88.73 699.784 88.618C699.476 88.506 699.21 88.338 698.986 88.114L699.448 87.372C699.822 87.7453 700.27 87.932 700.792 87.932C701.128 87.932 701.413 87.8387 701.646 87.652C701.889 87.4653 702.113 87.148 702.318 86.7L702.64 85.986L699.35 78.636H700.386L703.158 84.894L705.93 78.636H706.91ZM713.667 79.518H709.453V86H708.459V78.636H713.667V79.518ZM715.103 78.636H716.097V84.488L721.011 78.636H721.893V86H720.899V80.148L715.999 86H715.103V78.636Z" fill="white" fill-opacity="0.8"/>
<path d="M772.32 76.2C773.571 76.2 774.551 76.4987 775.26 77.096C775.969 77.6933 776.324 78.5147 776.324 79.56C776.324 80.6053 775.969 81.4267 775.26 82.024C774.551 82.612 773.571 82.906 772.32 82.906H769.688V86H768.652V76.2H772.32ZM772.292 81.996C773.263 81.996 774.005 81.786 774.518 81.366C775.031 80.9367 775.288 80.3347 775.288 79.56C775.288 78.7667 775.031 78.16 774.518 77.74C774.005 77.3107 773.263 77.096 772.292 77.096H769.688V81.996H772.292ZM780.682 78.58C781.644 78.58 782.381 78.8227 782.894 79.308C783.408 79.784 783.664 80.4933 783.664 81.436V86H782.712V84.852C782.488 85.2347 782.157 85.5333 781.718 85.748C781.289 85.9627 780.776 86.07 780.178 86.07C779.357 86.07 778.704 85.874 778.218 85.482C777.733 85.09 777.49 84.572 777.49 83.928C777.49 83.3027 777.714 82.7987 778.162 82.416C778.62 82.0333 779.343 81.842 780.332 81.842H782.67V81.394C782.67 80.7593 782.493 80.2787 782.138 79.952C781.784 79.616 781.266 79.448 780.584 79.448C780.118 79.448 779.67 79.5273 779.24 79.686C778.811 79.8353 778.442 80.0453 778.134 80.316L777.686 79.574C778.06 79.2567 778.508 79.014 779.03 78.846C779.553 78.6687 780.104 78.58 780.682 78.58ZM780.332 85.286C780.892 85.286 781.373 85.16 781.774 84.908C782.176 84.6467 782.474 84.2733 782.67 83.788V82.584H780.36C779.1 82.584 778.47 83.0227 778.47 83.9C778.47 84.3293 778.634 84.67 778.96 84.922C779.287 85.1647 779.744 85.286 780.332 85.286ZM789.39 86.07C788.662 86.07 788.009 85.9113 787.43 85.594C786.861 85.2767 786.413 84.8333 786.086 84.264C785.76 83.6853 785.596 83.0367 785.596 82.318C785.596 81.5993 785.76 80.9553 786.086 80.386C786.413 79.8167 786.861 79.3733 787.43 79.056C788.009 78.7387 788.662 78.58 789.39 78.58C790.025 78.58 790.59 78.706 791.084 78.958C791.588 79.2007 791.985 79.56 792.274 80.036L791.532 80.54C791.29 80.176 790.982 79.9053 790.608 79.728C790.235 79.5413 789.829 79.448 789.39 79.448C788.858 79.448 788.378 79.5693 787.948 79.812C787.528 80.0453 787.197 80.3813 786.954 80.82C786.721 81.2587 786.604 81.758 786.604 82.318C786.604 82.8873 786.721 83.3913 786.954 83.83C787.197 84.2593 787.528 84.5953 787.948 84.838C788.378 85.0713 788.858 85.188 789.39 85.188C789.829 85.188 790.235 85.0993 790.608 84.922C790.982 84.7447 791.29 84.474 791.532 84.11L792.274 84.614C791.985 85.09 791.588 85.454 791.084 85.706C790.58 85.9487 790.016 86.07 789.39 86.07ZM800.807 78.636V86H799.813V79.518H795.193V86H794.199V78.636H800.807ZM803.633 78.636H804.627V84.488L809.541 78.636H810.423V86H809.429V80.148L804.529 86H803.633V78.636ZM816.351 86.07C815.623 86.07 814.97 85.9113 814.391 85.594C813.822 85.2767 813.374 84.8333 813.047 84.264C812.721 83.6853 812.557 83.0367 812.557 82.318C812.557 81.5993 812.721 80.9553 813.047 80.386C813.374 79.8167 813.822 79.3733 814.391 79.056C814.97 78.7387 815.623 78.58 816.351 78.58C816.986 78.58 817.551 78.706 818.045 78.958C818.549 79.2007 818.946 79.56 819.235 80.036L818.493 80.54C818.251 80.176 817.943 79.9053 817.569 79.728C817.196 79.5413 816.79 79.448 816.351 79.448C815.819 79.448 815.339 79.5693 814.909 79.812C814.489 80.0453 814.158 80.3813 813.915 80.82C813.682 81.2587 813.565 81.758 813.565 82.318C813.565 82.8873 813.682 83.3913 813.915 83.83C814.158 84.2593 814.489 84.5953 814.909 84.838C815.339 85.0713 815.819 85.188 816.351 85.188C816.79 85.188 817.196 85.0993 817.569 84.922C817.943 84.7447 818.251 84.474 818.493 84.11L819.235 84.614C818.946 85.09 818.549 85.454 818.045 85.706C817.541 85.9487 816.977 86.07 816.351 86.07ZM823.694 78.58C824.655 78.58 825.393 78.8227 825.906 79.308C826.419 79.784 826.676 80.4933 826.676 81.436V86H825.724V84.852C825.5 85.2347 825.169 85.5333 824.73 85.748C824.301 85.9627 823.787 86.07 823.19 86.07C822.369 86.07 821.715 85.874 821.23 85.482C820.745 85.09 820.502 84.572 820.502 83.928C820.502 83.3027 820.726 82.7987 821.174 82.416C821.631 82.0333 822.355 81.842 823.344 81.842H825.682V81.394C825.682 80.7593 825.505 80.2787 825.15 79.952C824.795 79.616 824.277 79.448 823.596 79.448C823.129 79.448 822.681 79.5273 822.252 79.686C821.823 79.8353 821.454 80.0453 821.146 80.316L820.698 79.574C821.071 79.2567 821.519 79.014 822.042 78.846C822.565 78.6687 823.115 78.58 823.694 78.58ZM823.344 85.286C823.904 85.286 824.385 85.16 824.786 84.908C825.187 84.6467 825.486 84.2733 825.682 83.788V82.584H823.372C822.112 82.584 821.482 83.0227 821.482 83.9C821.482 84.3293 821.645 84.67 821.972 84.922C822.299 85.1647 822.756 85.286 823.344 85.286ZM829.322 78.636H830.316V81.898H834.95V78.636H835.944V86H834.95V82.752H830.316V86H829.322V78.636ZM838.769 78.636H839.763V84.488L844.677 78.636H845.559V86H844.565V80.148L839.665 86H838.769V78.636ZM854.848 82.626H848.688C848.744 83.3913 849.038 84.012 849.57 84.488C850.102 84.9547 850.774 85.188 851.586 85.188C852.043 85.188 852.463 85.1087 852.846 84.95C853.229 84.782 853.56 84.5393 853.84 84.222L854.4 84.866C854.073 85.258 853.663 85.5567 853.168 85.762C852.683 85.9673 852.146 86.07 851.558 86.07C850.802 86.07 850.13 85.9113 849.542 85.594C848.963 85.2673 848.511 84.8193 848.184 84.25C847.857 83.6807 847.694 83.0367 847.694 82.318C847.694 81.5993 847.848 80.9553 848.156 80.386C848.473 79.8167 848.903 79.3733 849.444 79.056C849.995 78.7387 850.611 78.58 851.292 78.58C851.973 78.58 852.585 78.7387 853.126 79.056C853.667 79.3733 854.092 79.8167 854.4 80.386C854.708 80.946 854.862 81.59 854.862 82.318L854.848 82.626ZM851.292 79.434C850.583 79.434 849.985 79.6627 849.5 80.12C849.024 80.568 848.753 81.156 848.688 81.884H853.91C853.845 81.156 853.569 80.568 853.084 80.12C852.608 79.6627 852.011 79.434 851.292 79.434Z" fill="white" fill-opacity="0.8"/>
<path d="M900.652 76.2H907.82V77.082H901.674V80.288H904.88C906.037 80.288 906.915 80.526 907.512 81.002C908.119 81.478 908.422 82.1687 908.422 83.074C908.422 84.0167 908.095 84.74 907.442 85.244C906.798 85.748 905.869 86 904.656 86H900.652V76.2ZM904.642 85.174C905.547 85.174 906.229 85.0013 906.686 84.656C907.153 84.3107 907.386 83.7973 907.386 83.116C907.386 82.444 907.157 81.9447 906.7 81.618C906.252 81.282 905.566 81.114 904.642 81.114H901.674V85.174H904.642ZM913.12 78.58C914.081 78.58 914.819 78.8227 915.332 79.308C915.845 79.784 916.102 80.4933 916.102 81.436V86H915.15V84.852C914.926 85.2347 914.595 85.5333 914.156 85.748C913.727 85.9627 913.213 86.07 912.616 86.07C911.795 86.07 911.141 85.874 910.656 85.482C910.171 85.09 909.928 84.572 909.928 83.928C909.928 83.3027 910.152 82.7987 910.6 82.416C911.057 82.0333 911.781 81.842 912.77 81.842H915.108V81.394C915.108 80.7593 914.931 80.2787 914.576 79.952C914.221 79.616 913.703 79.448 913.022 79.448C912.555 79.448 912.107 79.5273 911.678 79.686C911.249 79.8353 910.88 80.0453 910.572 80.316L910.124 79.574C910.497 79.2567 910.945 79.014 911.468 78.846C911.991 78.6687 912.541 78.58 913.12 78.58ZM912.77 85.286C913.33 85.286 913.811 85.16 914.212 84.908C914.613 84.6467 914.912 84.2733 915.108 83.788V82.584H912.798C911.538 82.584 910.908 83.0227 910.908 83.9C910.908 84.3293 911.071 84.67 911.398 84.922C911.725 85.1647 912.182 85.286 912.77 85.286ZM918.748 78.636H919.742V81.898H924.376V78.636H925.37V86H924.376V82.752H919.742V86H918.748V78.636ZM928.195 78.636H929.189V84.488L934.103 78.636H934.985V86H933.991V80.148L929.091 86H928.195V78.636ZM941.498 78.636H942.492V84.488L947.406 78.636H948.288V86H947.294V80.148L942.394 86H941.498V78.636ZM958.371 78.818C959.052 78.818 959.659 78.972 960.191 79.28C960.732 79.5787 961.152 80.0033 961.451 80.554C961.749 81.0953 961.899 81.716 961.899 82.416C961.899 83.1347 961.74 83.774 961.423 84.334C961.115 84.8847 960.681 85.314 960.121 85.622C959.561 85.93 958.917 86.084 958.189 86.084C956.966 86.084 956.019 85.6547 955.347 84.796C954.675 83.9373 954.339 82.752 954.339 81.24C954.339 79.6627 954.637 78.454 955.235 77.614C955.841 76.774 956.784 76.2047 958.063 75.906L961.367 75.15L961.535 76.06L958.427 76.774C957.372 77.0073 956.597 77.4227 956.103 78.02C955.608 78.608 955.337 79.4807 955.291 80.638C955.589 80.0687 956.005 79.6253 956.537 79.308C957.069 78.9813 957.68 78.818 958.371 78.818ZM958.217 85.258C958.73 85.258 959.187 85.1413 959.589 84.908C959.999 84.6653 960.317 84.3293 960.541 83.9C960.774 83.4707 960.891 82.9853 960.891 82.444C960.891 81.9027 960.779 81.4267 960.555 81.016C960.331 80.6053 960.013 80.288 959.603 80.064C959.201 79.8307 958.739 79.714 958.217 79.714C957.694 79.714 957.227 79.8307 956.817 80.064C956.415 80.288 956.098 80.6053 955.865 81.016C955.641 81.4267 955.529 81.9027 955.529 82.444C955.529 82.9853 955.641 83.4707 955.865 83.9C956.098 84.3293 956.42 84.6653 956.831 84.908C957.241 85.1413 957.703 85.258 958.217 85.258ZM966.522 78.58C967.484 78.58 968.221 78.8227 968.734 79.308C969.248 79.784 969.504 80.4933 969.504 81.436V86H968.552V84.852C968.328 85.2347 967.997 85.5333 967.558 85.748C967.129 85.9627 966.616 86.07 966.018 86.07C965.197 86.07 964.544 85.874 964.058 85.482C963.573 85.09 963.33 84.572 963.33 83.928C963.33 83.3027 963.554 82.7987 964.002 82.416C964.46 82.0333 965.183 81.842 966.172 81.842H968.51V81.394C968.51 80.7593 968.333 80.2787 967.978 79.952C967.624 79.616 967.106 79.448 966.424 79.448C965.958 79.448 965.51 79.5273 965.08 79.686C964.651 79.8353 964.282 80.0453 963.974 80.316L963.526 79.574C963.9 79.2567 964.348 79.014 964.87 78.846C965.393 78.6687 965.944 78.58 966.522 78.58ZM966.172 85.286C966.732 85.286 967.213 85.16 967.614 84.908C968.016 84.6467 968.314 84.2733 968.51 83.788V82.584H966.2C964.94 82.584 964.31 83.0227 964.31 83.9C964.31 84.3293 964.474 84.67 964.8 84.922C965.127 85.1647 965.584 85.286 966.172 85.286ZM975.23 86.07C974.502 86.07 973.849 85.9113 973.27 85.594C972.701 85.2767 972.253 84.8333 971.926 84.264C971.6 83.6853 971.436 83.0367 971.436 82.318C971.436 81.5993 971.6 80.9553 971.926 80.386C972.253 79.8167 972.701 79.3733 973.27 79.056C973.849 78.7387 974.502 78.58 975.23 78.58C975.865 78.58 976.43 78.706 976.924 78.958C977.428 79.2007 977.825 79.56 978.114 80.036L977.372 80.54C977.13 80.176 976.822 79.9053 976.448 79.728C976.075 79.5413 975.669 79.448 975.23 79.448C974.698 79.448 974.218 79.5693 973.788 79.812C973.368 80.0453 973.037 80.3813 972.794 80.82C972.561 81.2587 972.444 81.758 972.444 82.318C972.444 82.8873 972.561 83.3913 972.794 83.83C973.037 84.2593 973.368 84.5953 973.788 84.838C974.218 85.0713 974.698 85.188 975.23 85.188C975.669 85.188 976.075 85.0993 976.448 84.922C976.822 84.7447 977.13 84.474 977.372 84.11L978.114 84.614C977.825 85.09 977.428 85.454 976.924 85.706C976.42 85.9487 975.856 86.07 975.23 86.07ZM982.996 86.07C982.268 86.07 981.615 85.9113 981.036 85.594C980.467 85.2767 980.019 84.8333 979.692 84.264C979.365 83.6853 979.202 83.0367 979.202 82.318C979.202 81.5993 979.365 80.9553 979.692 80.386C980.019 79.8167 980.467 79.3733 981.036 79.056C981.615 78.7387 982.268 78.58 982.996 78.58C983.631 78.58 984.195 78.706 984.69 78.958C985.194 79.2007 985.591 79.56 985.88 80.036L985.138 80.54C984.895 80.176 984.587 79.9053 984.214 79.728C983.841 79.5413 983.435 79.448 982.996 79.448C982.464 79.448 981.983 79.5693 981.554 79.812C981.134 80.0453 980.803 80.3813 980.56 80.82C980.327 81.2587 980.21 81.758 980.21 82.318C980.21 82.8873 980.327 83.3913 980.56 83.83C980.803 84.2593 981.134 84.5953 981.554 84.838C981.983 85.0713 982.464 85.188 982.996 85.188C983.435 85.188 983.841 85.0993 984.214 84.922C984.587 84.7447 984.895 84.474 985.138 84.11L985.88 84.614C985.591 85.09 985.194 85.454 984.69 85.706C984.186 85.9487 983.621 86.07 982.996 86.07ZM994.122 82.626H987.962C988.018 83.3913 988.312 84.012 988.844 84.488C989.376 84.9547 990.048 85.188 990.86 85.188C991.317 85.188 991.737 85.1087 992.12 84.95C992.502 84.782 992.834 84.5393 993.114 84.222L993.674 84.866C993.347 85.258 992.936 85.5567 992.442 85.762C991.956 85.9673 991.42 86.07 990.832 86.07C990.076 86.07 989.404 85.9113 988.816 85.594C988.237 85.2673 987.784 84.8193 987.458 84.25C987.131 83.6807 986.968 83.0367 986.968 82.318C986.968 81.5993 987.122 80.9553 987.43 80.386C987.747 79.8167 988.176 79.3733 988.718 79.056C989.268 78.7387 989.884 78.58 990.566 78.58C991.247 78.58 991.858 78.7387 992.4 79.056C992.941 79.3733 993.366 79.8167 993.674 80.386C993.982 80.946 994.136 81.59 994.136 82.318L994.122 82.626ZM990.566 79.434C989.856 79.434 989.259 79.6627 988.774 80.12C988.298 80.568 988.027 81.156 987.962 81.884H993.184C993.118 81.156 992.843 80.568 992.358 80.12C991.882 79.6627 991.284 79.434 990.566 79.434ZM996.336 78.636H997.33V84.488L1002.24 78.636H1003.13V86H1002.13V80.148L997.232 86H996.336V78.636ZM999.682 77.572C999.047 77.572 998.543 77.4133 998.17 77.096C997.797 76.7787 997.605 76.3307 997.596 75.752H998.31C998.319 76.116 998.45 76.41 998.702 76.634C998.954 76.8487 999.281 76.956 999.682 76.956C1000.08 76.956 1000.41 76.8487 1000.66 76.634C1000.92 76.41 1001.06 76.116 1001.07 75.752H1001.78C1001.77 76.3307 1001.58 76.7787 1001.19 77.096C1000.82 77.4133 1000.32 77.572 999.682 77.572ZM1005.97 78.636H1006.97V81.898H1011.6V78.636H1012.6V86H1011.6V82.752H1006.97V86H1005.97V78.636ZM1018.52 81.24C1019.44 81.2493 1020.14 81.4547 1020.63 81.856C1021.12 82.2573 1021.36 82.836 1021.36 83.592C1021.36 84.376 1021.1 84.978 1020.57 85.398C1020.05 85.818 1019.3 86.0233 1018.33 86.014L1015.42 86V78.636H1016.42V81.212L1018.52 81.24ZM1022.59 78.636H1023.58V86H1022.59V78.636ZM1018.28 85.258C1018.96 85.2673 1019.47 85.132 1019.82 84.852C1020.17 84.5627 1020.35 84.1427 1020.35 83.592C1020.35 83.0507 1020.18 82.6493 1019.83 82.388C1019.49 82.1267 1018.97 81.9913 1018.28 81.982L1016.42 81.954V85.23L1018.28 85.258Z" fill="white" fill-opacity="0.8"/>
<path d="M1079.65 85.104V88.198H1078.69V86H1070.13L1070.12 88.198H1069.15L1069.17 85.104H1069.66C1070.3 85.0667 1070.75 84.558 1071 83.578C1071.25 82.5887 1071.41 81.1887 1071.46 79.378L1071.58 76.2H1078.18V85.104H1079.65ZM1072.39 79.476C1072.34 80.9693 1072.22 82.2013 1072.04 83.172C1071.86 84.1333 1071.56 84.7773 1071.13 85.104H1077.16V77.096H1072.47L1072.39 79.476ZM1087.76 82.626H1081.6C1081.66 83.3913 1081.95 84.012 1082.49 84.488C1083.02 84.9547 1083.69 85.188 1084.5 85.188C1084.96 85.188 1085.38 85.1087 1085.76 84.95C1086.14 84.782 1086.48 84.5393 1086.76 84.222L1087.32 84.866C1086.99 85.258 1086.58 85.5567 1086.08 85.762C1085.6 85.9673 1085.06 86.07 1084.47 86.07C1083.72 86.07 1083.05 85.9113 1082.46 85.594C1081.88 85.2673 1081.43 84.8193 1081.1 84.25C1080.77 83.6807 1080.61 83.0367 1080.61 82.318C1080.61 81.5993 1080.76 80.9553 1081.07 80.386C1081.39 79.8167 1081.82 79.3733 1082.36 79.056C1082.91 78.7387 1083.53 78.58 1084.21 78.58C1084.89 78.58 1085.5 78.7387 1086.04 79.056C1086.58 79.3733 1087.01 79.8167 1087.32 80.386C1087.62 80.946 1087.78 81.59 1087.78 82.318L1087.76 82.626ZM1084.21 79.434C1083.5 79.434 1082.9 79.6627 1082.42 80.12C1081.94 80.568 1081.67 81.156 1081.6 81.884H1086.83C1086.76 81.156 1086.49 80.568 1086 80.12C1085.52 79.6627 1084.93 79.434 1084.21 79.434ZM1094.83 79.518H1092.04V86H1091.05V79.518H1088.26V78.636H1094.83V79.518ZM1099.01 86.07C1098.28 86.07 1097.62 85.9113 1097.05 85.594C1096.48 85.2767 1096.03 84.8333 1095.7 84.264C1095.38 83.6853 1095.21 83.0367 1095.21 82.318C1095.21 81.5993 1095.38 80.9553 1095.7 80.386C1096.03 79.8167 1096.48 79.3733 1097.05 79.056C1097.62 78.7387 1098.28 78.58 1099.01 78.58C1099.64 78.58 1100.21 78.706 1100.7 78.958C1101.2 79.2007 1101.6 79.56 1101.89 80.036L1101.15 80.54C1100.91 80.176 1100.6 79.9053 1100.22 79.728C1099.85 79.5413 1099.44 79.448 1099.01 79.448C1098.47 79.448 1097.99 79.5693 1097.56 79.812C1097.14 80.0453 1096.81 80.3813 1096.57 80.82C1096.34 81.2587 1096.22 81.758 1096.22 82.318C1096.22 82.8873 1096.34 83.3913 1096.57 83.83C1096.81 84.2593 1097.14 84.5953 1097.56 84.838C1097.99 85.0713 1098.47 85.188 1099.01 85.188C1099.44 85.188 1099.85 85.0993 1100.22 84.922C1100.6 84.7447 1100.91 84.474 1101.15 84.11L1101.89 84.614C1101.6 85.09 1101.2 85.454 1100.7 85.706C1100.2 85.9487 1099.63 86.07 1099.01 86.07ZM1106.49 82.724H1104.81V86H1103.81V78.636H1104.81V81.87H1106.5L1109.09 78.636H1110.17L1107.27 82.206L1110.38 86H1109.2L1106.49 82.724ZM1111.95 78.636H1112.94V84.488L1117.86 78.636H1118.74V86H1117.75V80.148L1112.85 86H1111.95V78.636ZM1121.59 78.636H1122.58V84.488L1127.5 78.636H1128.38V86H1127.38V80.148L1122.48 86H1121.59V78.636ZM1124.93 77.572C1124.3 77.572 1123.8 77.4133 1123.42 77.096C1123.05 76.7787 1122.86 76.3307 1122.85 75.752H1123.56C1123.57 76.116 1123.7 76.41 1123.95 76.634C1124.21 76.8487 1124.53 76.956 1124.93 76.956C1125.34 76.956 1125.66 76.8487 1125.91 76.634C1126.18 76.41 1126.31 76.116 1126.32 75.752H1127.03C1127.02 76.3307 1126.83 76.7787 1126.45 77.096C1126.07 77.4133 1125.57 77.572 1124.93 77.572ZM1142.56 85.132V87.848H1141.62V86H1134.89V78.636H1135.88V85.132H1140.38V78.636H1141.37V85.132H1142.56ZM1150.9 82.626H1144.74C1144.8 83.3913 1145.09 84.012 1145.62 84.488C1146.15 84.9547 1146.83 85.188 1147.64 85.188C1148.1 85.188 1148.52 85.1087 1148.9 84.95C1149.28 84.782 1149.61 84.5393 1149.89 84.222L1150.45 84.866C1150.13 85.258 1149.72 85.5567 1149.22 85.762C1148.74 85.9673 1148.2 86.07 1147.61 86.07C1146.85 86.07 1146.18 85.9113 1145.59 85.594C1145.02 85.2673 1144.56 84.8193 1144.24 84.25C1143.91 83.6807 1143.75 83.0367 1143.75 82.318C1143.75 81.5993 1143.9 80.9553 1144.21 80.386C1144.53 79.8167 1144.96 79.3733 1145.5 79.056C1146.05 78.7387 1146.66 78.58 1147.34 78.58C1148.03 78.58 1148.64 78.7387 1149.18 79.056C1149.72 79.3733 1150.14 79.8167 1150.45 80.386C1150.76 80.946 1150.91 81.59 1150.91 82.318L1150.9 82.626ZM1147.34 79.434C1146.64 79.434 1146.04 79.6627 1145.55 80.12C1145.08 80.568 1144.81 81.156 1144.74 81.884H1149.96C1149.9 81.156 1149.62 80.568 1149.14 80.12C1148.66 79.6627 1148.06 79.434 1147.34 79.434ZM1153.12 78.636H1154.11V81.898H1158.74V78.636H1159.74V86H1158.74V82.752H1154.11V86H1153.12V78.636ZM1167.74 79.518H1164.96V86H1163.96V79.518H1161.18V78.636H1167.74V79.518ZM1172.97 78.58C1173.66 78.58 1174.29 78.7387 1174.85 79.056C1175.41 79.364 1175.85 79.8027 1176.17 80.372C1176.48 80.9413 1176.64 81.59 1176.64 82.318C1176.64 83.0553 1176.48 83.7087 1176.17 84.278C1175.85 84.8473 1175.41 85.2907 1174.85 85.608C1174.3 85.916 1173.67 86.07 1172.97 86.07C1172.38 86.07 1171.83 85.9487 1171.35 85.706C1170.87 85.454 1170.48 85.09 1170.17 84.614V88.716H1169.18V78.636H1170.13V80.092C1170.43 79.6067 1170.82 79.2333 1171.31 78.972C1171.8 78.7107 1172.36 78.58 1172.97 78.58ZM1172.9 85.188C1173.42 85.188 1173.88 85.0713 1174.3 84.838C1174.72 84.5953 1175.05 84.2547 1175.28 83.816C1175.53 83.3773 1175.65 82.878 1175.65 82.318C1175.65 81.758 1175.53 81.2633 1175.28 80.834C1175.05 80.3953 1174.72 80.0547 1174.3 79.812C1173.88 79.5693 1173.42 79.448 1172.9 79.448C1172.38 79.448 1171.91 79.5693 1171.49 79.812C1171.08 80.0547 1170.75 80.3953 1170.51 80.834C1170.28 81.2633 1170.16 81.758 1170.16 82.318C1170.16 82.878 1170.28 83.3773 1170.51 83.816C1170.75 84.2547 1171.08 84.5953 1171.49 84.838C1171.91 85.0713 1172.38 85.188 1172.9 85.188Z" fill="white" fill-opacity="0.8"/>
<rect width="1280" height="40" fill="#004643"/>
<path fill-rule="evenodd" clip-rule="evenodd" d="M1034.22 21.8307L1030.3 20.1515C1029.9 19.9802 1029.9 19.3351 1030.3 19.1594L1046.37 12.0365C1046.71 11.8851 1047.06 12.228 1046.99 12.6391L1044.11 28.5778C1044.04 28.9541 1043.65 29.1247 1043.38 28.8984L1039.44 25.6144C1039.2 25.4149 1038.88 25.4256 1038.65 25.6398L1036.47 27.6843C1036.21 27.9223 1035.83 27.7897 1035.73 27.431L1034.22 21.8307ZM1043.14 15.5213L1035.49 20.9368C1035.2 21.1448 1035.06 21.5518 1035.15 21.9328L1035.98 25.2733C1036.04 25.51 1036.34 25.4857 1036.37 25.2411L1036.58 23.4093C1036.62 23.0644 1036.77 22.7466 1036.99 22.5092L1043.31 15.7638C1043.42 15.6379 1043.28 15.4242 1043.14 15.5213Z" fill="white"/>
<path d="M1035.49 20.9369L1043.14 15.5214C1043.28 15.4243 1043.42 15.638 1043.31 15.7639L1036.99 22.5093C1036.77 22.7467 1036.62 23.0644 1036.58 23.4093L1036.37 25.2412C1036.34 25.4858 1036.04 25.5101 1035.98 25.2734L1035.15 21.9329C1035.06 21.5518 1035.2 21.1449 1035.49 20.9369Z" fill="#E6E6E6"/>
<path d="M1177.63 22.3585C1178.19 22.9307 1178.79 23.4692 1179.3 24.0992C1179.52 24.3791 1179.73 24.668 1179.89 24.9929C1180.12 25.4548 1179.91 25.963 1179.52 25.9906L1177.04 25.9894C1176.4 26.0445 1175.89 25.7772 1175.46 25.3233C1175.12 24.9602 1174.8 24.5739 1174.47 24.1986C1174.34 24.0452 1174.2 23.9008 1174.03 23.7868C1173.69 23.5586 1173.39 23.6285 1173.2 23.995C1173.01 24.3678 1172.96 24.7806 1172.94 25.1961C1172.91 25.8023 1172.74 25.9616 1172.15 25.9894C1170.9 26.0507 1169.71 25.8539 1168.61 25.1974C1167.64 24.6187 1166.88 23.8017 1166.22 22.8767C1164.95 21.0757 1163.97 19.0967 1163.09 17.0622C1162.89 16.6038 1163.03 16.3578 1163.52 16.349C1164.33 16.3327 1165.13 16.3339 1165.94 16.3479C1166.27 16.3529 1166.49 16.5487 1166.62 16.8711C1167.05 17.9883 1167.59 19.0513 1168.26 20.0365C1168.44 20.2988 1168.62 20.5611 1168.88 20.7458C1169.17 20.9502 1169.39 20.8824 1169.52 20.5499C1169.61 20.339 1169.64 20.1119 1169.66 19.886C1169.73 19.109 1169.74 18.3334 1169.62 17.5591C1169.56 17.0759 1169.29 16.7631 1168.83 16.6716C1168.59 16.625 1168.63 16.5334 1168.74 16.393C1168.94 16.1508 1169.13 16 1169.5 16H1172.3C1172.74 16.0904 1172.84 16.2962 1172.9 16.757L1172.9 19.9887C1172.9 20.1672 1172.99 20.6966 1173.3 20.8147C1173.54 20.8987 1173.71 20.693 1173.86 20.5299C1174.53 19.7906 1175 18.9169 1175.43 18.0121C1175.62 17.6143 1175.78 17.2012 1175.94 16.7884C1176.06 16.4821 1176.24 16.3313 1176.58 16.338L1179.27 16.3405C1179.35 16.3405 1179.43 16.3417 1179.51 16.3555C1179.96 16.4359 1180.09 16.6389 1179.95 17.0996C1179.72 17.8225 1179.29 18.4249 1178.87 19.0301C1178.43 19.6763 1177.94 20.3003 1177.5 20.9502C1177.09 21.5438 1177.12 21.843 1177.63 22.3585Z" fill="white"/>
<path fill-rule="evenodd" clip-rule="evenodd" d="M1088.94 12H1082.06C1079.27 12 1077 14.2719 1077 17.0644V23.9356C1077 26.7281 1079.27 29 1082.06 29H1088.94C1091.73 29 1094 26.7281 1094 23.9356V17.0644C1094 14.2719 1091.73 12 1088.94 12ZM1092.29 23.9356C1092.29 25.7881 1090.79 27.2898 1088.94 27.2898H1082.06C1080.21 27.2898 1078.71 25.7881 1078.71 23.9356V17.0644C1078.71 15.2119 1080.21 13.7102 1082.06 13.7102H1088.94C1090.79 13.7102 1092.29 15.2119 1092.29 17.0644V23.9356ZM1081.1 20.5C1081.1 18.0756 1083.08 16.1032 1085.5 16.1032C1087.92 16.1032 1089.9 18.0756 1089.9 20.5C1089.9 22.9244 1087.92 24.8968 1085.5 24.8968C1083.08 24.8968 1081.1 22.9244 1081.1 20.5ZM1085.5 23.1866C1084.02 23.1866 1082.81 21.9838 1082.81 20.5C1082.81 19.0162 1084.02 17.8134 1085.5 17.8134C1086.98 17.8134 1088.19 19.0162 1088.19 20.5C1088.19 21.9838 1086.98 23.1866 1085.5 23.1866ZM1090.96 16.1362C1090.96 16.7181 1090.49 17.1898 1089.91 17.1898C1089.32 17.1898 1088.85 16.7181 1088.85 16.1362C1088.85 15.5543 1089.32 15.0826 1089.91 15.0826C1090.49 15.0826 1090.96 15.5543 1090.96 16.1362Z" fill="white"/>
<path fill-rule="evenodd" clip-rule="evenodd" d="M1129.98 28H1125.99V19.9724H1124V16.8789H1125.99V15.0232C1125.99 12.5014 1127.12 11 1130.32 11H1132.98V14.0935H1131.32C1130.07 14.0935 1129.99 14.5253 1129.99 15.3322L1129.98 16.8789H1133L1132.65 19.9724H1129.98V28Z" fill="white"/>
<path d="M857.364 20.8H854.886V23.25H853.388V20.8H850.91V19.4H853.388V16.95H854.886V19.4H857.364V20.8ZM866.129 15.2V16.418L862.321 25H860.375L864.057 16.74H860.207V18.406H858.513V15.2H866.129ZM873.392 27.716C872.841 26.8667 872.416 25.882 872.118 24.762C871.828 23.642 871.684 22.4427 871.684 21.164C871.684 19.8853 871.828 18.686 872.118 17.566C872.416 16.4367 872.841 15.452 873.392 14.612H875.058C874.488 15.62 874.068 16.6607 873.798 17.734C873.536 18.798 873.406 19.9413 873.406 21.164C873.406 22.3867 873.536 23.5347 873.798 24.608C874.068 25.672 874.488 26.708 875.058 27.716H873.392ZM884.44 22.774H882.704V25H880.94V22.774H875.564V21.514L880.394 15.2H882.34L877.79 21.234H880.996V19.26H882.704V21.234H884.44V22.774ZM888.441 15.06C889.785 15.06 890.826 15.48 891.563 16.32C892.31 17.16 892.683 18.364 892.683 19.932C892.683 21.0333 892.483 21.976 892.081 22.76C891.68 23.5347 891.115 24.1273 890.387 24.538C889.669 24.9393 888.833 25.14 887.881 25.14C887.377 25.14 886.901 25.0887 886.453 24.986C886.015 24.874 885.632 24.7153 885.305 24.51L885.977 23.138C886.463 23.4553 887.083 23.614 887.839 23.614C888.782 23.614 889.519 23.3247 890.051 22.746C890.583 22.1673 890.849 21.332 890.849 20.24V20.226C890.56 20.562 890.191 20.8187 889.743 20.996C889.295 21.164 888.791 21.248 888.231 21.248C887.587 21.248 887.009 21.1267 886.495 20.884C885.982 20.632 885.581 20.2773 885.291 19.82C885.002 19.3627 884.857 18.8353 884.857 18.238C884.857 17.6033 885.016 17.048 885.333 16.572C885.651 16.0867 886.08 15.7133 886.621 15.452C887.163 15.1907 887.769 15.06 888.441 15.06ZM888.581 19.82C889.169 19.82 889.645 19.6613 890.009 19.344C890.383 19.0267 890.569 18.6253 890.569 18.14C890.569 17.664 890.387 17.272 890.023 16.964C889.669 16.6467 889.174 16.488 888.539 16.488C887.97 16.488 887.508 16.642 887.153 16.95C886.799 17.2487 886.621 17.65 886.621 18.154C886.621 18.6673 886.799 19.0733 887.153 19.372C887.508 19.6707 887.984 19.82 888.581 19.82ZM896.981 18.994C898.362 18.994 899.384 19.2647 900.047 19.806C900.709 20.338 901.041 21.066 901.041 21.99C901.041 22.578 900.896 23.11 900.607 23.586C900.317 24.062 899.883 24.44 899.305 24.72C898.726 25 898.012 25.14 897.163 25.14C896.463 25.14 895.786 25.042 895.133 24.846C894.479 24.6407 893.929 24.3607 893.481 24.006L894.251 22.592C894.615 22.8907 895.049 23.1287 895.553 23.306C896.066 23.474 896.593 23.558 897.135 23.558C897.779 23.558 898.283 23.4273 898.647 23.166C899.02 22.8953 899.207 22.5267 899.207 22.06C899.207 21.556 899.006 21.178 898.605 20.926C898.213 20.6647 897.536 20.534 896.575 20.534H894.209L894.713 15.2H900.467V16.726H896.253L896.043 18.994H896.981ZM901.783 27.716C902.352 26.708 902.772 25.6673 903.043 24.594C903.313 23.5207 903.449 22.3773 903.449 21.164C903.449 19.9507 903.313 18.8073 903.043 17.734C902.772 16.6607 902.352 15.62 901.783 14.612H903.449C903.999 15.4427 904.419 16.4227 904.709 17.552C905.007 18.672 905.157 19.876 905.157 21.164C905.157 22.452 905.007 23.656 904.709 24.776C904.419 25.8867 903.999 26.8667 903.449 27.716H901.783ZM917.183 19.848C917.696 20.0813 918.088 20.3987 918.359 20.8C918.639 21.192 918.779 21.654 918.779 22.186C918.779 22.7833 918.611 23.306 918.275 23.754C917.948 24.202 917.482 24.5473 916.875 24.79C916.268 25.0233 915.564 25.14 914.761 25.14C913.958 25.14 913.254 25.0233 912.647 24.79C912.05 24.5473 911.588 24.202 911.261 23.754C910.934 23.306 910.771 22.7833 910.771 22.186C910.771 21.654 910.906 21.192 911.177 20.8C911.448 20.3987 911.835 20.0813 912.339 19.848C911.947 19.6333 911.644 19.3533 911.429 19.008C911.224 18.6533 911.121 18.2473 911.121 17.79C911.121 17.2393 911.27 16.7587 911.569 16.348C911.877 15.9373 912.306 15.62 912.857 15.396C913.408 15.172 914.042 15.06 914.761 15.06C915.489 15.06 916.128 15.172 916.679 15.396C917.23 15.62 917.659 15.9373 917.967 16.348C918.275 16.7587 918.429 17.2393 918.429 17.79C918.429 18.2473 918.322 18.6487 918.107 18.994C917.892 19.3393 917.584 19.624 917.183 19.848ZM914.761 16.488C914.192 16.488 913.739 16.6093 913.403 16.852C913.076 17.0947 912.913 17.4353 912.913 17.874C912.913 18.294 913.076 18.63 913.403 18.882C913.739 19.1247 914.192 19.246 914.761 19.246C915.34 19.246 915.797 19.1247 916.133 18.882C916.469 18.63 916.637 18.294 916.637 17.874C916.637 17.4353 916.464 17.0947 916.119 16.852C915.783 16.6093 915.33 16.488 914.761 16.488ZM914.761 23.712C915.433 23.712 915.965 23.572 916.357 23.292C916.749 23.012 916.945 22.6247 916.945 22.13C916.945 21.6447 916.749 21.262 916.357 20.982C915.965 20.702 915.433 20.562 914.761 20.562C914.089 20.562 913.562 20.702 913.179 20.982C912.796 21.262 912.605 21.6447 912.605 22.13C912.605 22.6247 912.796 23.012 913.179 23.292C913.562 23.572 914.089 23.712 914.761 23.712ZM923.026 18.994C924.407 18.994 925.429 19.2647 926.092 19.806C926.754 20.338 927.086 21.066 927.086 21.99C927.086 22.578 926.941 23.11 926.652 23.586C926.362 24.062 925.928 24.44 925.35 24.72C924.771 25 924.057 25.14 923.208 25.14C922.508 25.14 921.831 25.042 921.178 24.846C920.524 24.6407 919.974 24.3607 919.526 24.006L920.296 22.592C920.66 22.8907 921.094 23.1287 921.598 23.306C922.111 23.474 922.638 23.558 923.18 23.558C923.824 23.558 924.328 23.4273 924.692 23.166C925.065 22.8953 925.252 22.5267 925.252 22.06C925.252 21.556 925.051 21.178 924.65 20.926C924.258 20.6647 923.581 20.534 922.62 20.534H920.254L920.758 15.2H926.512V16.726H922.298L922.088 18.994H923.026ZM931.44 15.06C932.784 15.06 933.824 15.48 934.562 16.32C935.308 17.16 935.682 18.364 935.682 19.932C935.682 21.0333 935.481 21.976 935.08 22.76C934.678 23.5347 934.114 24.1273 933.386 24.538C932.667 24.9393 931.832 25.14 930.88 25.14C930.376 25.14 929.9 25.0887 929.452 24.986C929.013 24.874 928.63 24.7153 928.304 24.51L928.976 23.138C929.461 23.4553 930.082 23.614 930.838 23.614C931.78 23.614 932.518 23.3247 933.05 22.746C933.582 22.1673 933.848 21.332 933.848 20.24V20.226C933.558 20.562 933.19 20.8187 932.742 20.996C932.294 21.164 931.79 21.248 931.23 21.248C930.586 21.248 930.007 21.1267 929.494 20.884C928.98 20.632 928.579 20.2773 928.29 19.82C928 19.3627 927.856 18.8353 927.856 18.238C927.856 17.6033 928.014 17.048 928.332 16.572C928.649 16.0867 929.078 15.7133 929.62 15.452C930.161 15.1907 930.768 15.06 931.44 15.06ZM931.58 19.82C932.168 19.82 932.644 19.6613 933.008 19.344C933.381 19.0267 933.568 18.6253 933.568 18.14C933.568 17.664 933.386 17.272 933.022 16.964C932.667 16.6467 932.172 16.488 931.538 16.488C930.968 16.488 930.506 16.642 930.152 16.95C929.797 17.2487 929.62 17.65 929.62 18.154C929.62 18.6673 929.797 19.0733 930.152 19.372C930.506 19.6707 930.982 19.82 931.58 19.82ZM937.135 20.38H940.985V21.836H937.135V20.38ZM946.524 25.14C945.74 25.14 945.04 24.944 944.424 24.552C943.808 24.1507 943.323 23.572 942.968 22.816C942.614 22.0507 942.436 21.1453 942.436 20.1C942.436 19.0547 942.614 18.154 942.968 17.398C943.323 16.6327 943.808 16.054 944.424 15.662C945.04 15.2607 945.74 15.06 946.524 15.06C947.308 15.06 948.008 15.2607 948.624 15.662C949.25 16.054 949.74 16.6327 950.094 17.398C950.449 18.154 950.626 19.0547 950.626 20.1C950.626 21.1453 950.449 22.0507 950.094 22.816C949.74 23.572 949.25 24.1507 948.624 24.552C948.008 24.944 947.308 25.14 946.524 25.14ZM946.524 23.558C947.224 23.558 947.775 23.2687 948.176 22.69C948.587 22.1113 948.792 21.248 948.792 20.1C948.792 18.952 948.587 18.0887 948.176 17.51C947.775 16.9313 947.224 16.642 946.524 16.642C945.834 16.642 945.283 16.9313 944.872 17.51C944.471 18.0887 944.27 18.952 944.27 20.1C944.27 21.248 944.471 22.1113 944.872 22.69C945.283 23.2687 945.834 23.558 946.524 23.558ZM955.892 19.246C956.797 19.358 957.488 19.666 957.964 20.17C958.44 20.674 958.678 21.304 958.678 22.06C958.678 22.6293 958.533 23.1473 958.244 23.614C957.954 24.0807 957.516 24.454 956.928 24.734C956.349 25.0047 955.64 25.14 954.8 25.14C954.1 25.14 953.423 25.042 952.77 24.846C952.126 24.6407 951.575 24.3607 951.118 24.006L951.902 22.592C952.256 22.8907 952.686 23.1287 953.19 23.306C953.703 23.474 954.23 23.558 954.772 23.558C955.416 23.558 955.92 23.4273 956.284 23.166C956.657 22.8953 956.844 22.5313 956.844 22.074C956.844 21.6167 956.666 21.262 956.312 21.01C955.966 20.7487 955.434 20.618 954.716 20.618H953.82V19.372L956.046 16.726H951.594V15.2H958.272V16.418L955.892 19.246ZM960.022 20.38H963.872V21.836H960.022V20.38ZM972.51 15.2V16.418L968.702 25H966.756L970.438 16.74H966.588V18.406H964.894V15.2H972.51ZM980.734 23.46V25H973.51V23.782L977.402 20.086C977.84 19.666 978.134 19.302 978.284 18.994C978.442 18.6767 978.522 18.364 978.522 18.056C978.522 17.5987 978.368 17.2487 978.06 17.006C977.752 16.7633 977.299 16.642 976.702 16.642C975.703 16.642 974.938 16.9827 974.406 17.664L973.132 16.684C973.514 16.1707 974.028 15.774 974.672 15.494C975.325 15.2047 976.053 15.06 976.856 15.06C977.92 15.06 978.769 15.312 979.404 15.816C980.038 16.32 980.356 17.006 980.356 17.874C980.356 18.406 980.244 18.9053 980.02 19.372C979.796 19.8387 979.366 20.3707 978.732 20.968L976.114 23.46H980.734Z" fill="white"/>
<path d="M829.045 22.1611C831.021 24.1367 833.42 25.6611 835.382 25.6611C836.264 25.6611 837.036 25.3535 837.658 24.6699C838.021 24.2666 838.246 23.7949 838.246 23.3301C838.246 22.9883 838.116 22.6602 837.795 22.4277L835.696 20.9375C835.375 20.7188 835.108 20.6094 834.862 20.6094C834.555 20.6094 834.274 20.7871 833.96 21.0947L833.475 21.5732C833.399 21.6484 833.304 21.6826 833.215 21.6826C833.112 21.6826 833.01 21.6416 832.941 21.6074C832.518 21.3818 831.793 20.7598 831.116 20.0898C830.446 19.4199 829.824 18.6953 829.605 18.2715C829.571 18.1963 829.53 18.1006 829.53 17.998C829.53 17.9092 829.558 17.8203 829.633 17.7451L830.118 17.2461C830.419 16.9316 830.604 16.6582 830.604 16.3438C830.604 16.0977 830.487 15.8311 830.262 15.5098L828.792 13.4385C828.553 13.1104 828.218 12.9668 827.849 12.9668C827.397 12.9668 826.933 13.1719 826.529 13.5615C825.866 14.1973 825.572 14.9834 825.572 15.8516C825.572 17.8135 827.069 20.1924 829.045 22.1611Z" fill="white"/>
</g>
<defs>
<filter id="filter0_d_85_289" x="0" y="40" width="1280" height="81" filterUnits="userSpaceOnUse" color-interpolation-filters="sRGB">
<feFlood flood-opacity="0" result="BackgroundImageFix"/>
<feColorMatrix in="SourceAlpha" type="matrix" values="0 0 0 0 0 0 0 0 0 0 0 0 0 0 0 0 0 0 127 0" result="hardAlpha"/>
<feOffset dy="1"/>
<feComposite in2="hardAlpha" operator="out"/>
<feColorMatrix type="matrix" values="0 0 0 0 1 0 0 0 0 1 0 0 0 0 1 0 0 0 0.05 0"/>
<feBlend mode="normal" in2="BackgroundImageFix" result="effect1_dropShadow_85_289"/>
<feBlend mode="normal" in="SourceGraphic" in2="effect1_dropShadow_85_289" result="shape"/>
</filter>
<clipPath id="clip0_85_289">
<rect width="1280" height="120" fill="white"/>
</clipPath>
</defs>
</svg>
