<svg width="1275" height="114" viewBox="0 0 1275 114" fill="none" xmlns="http://www.w3.org/2000/svg">
<g opacity="0.02">
<mask id="path-1-outside-1_85_290" maskUnits="userSpaceOnUse" x="-2" y="-2" width="1280" height="118" fill="black">
<rect fill="white" x="-2" y="-2" width="1280" height="118"/>
<path d="M125.65 14.716L136.102 112H101.396L99.252 42.588L85.852 112H50.744L37.076 43.124L35.066 112H0.36L10.812 14.716H56.372L68.03 78.098L78.214 14.716H125.65ZM189.94 113.34C174.664 113.34 163.408 109.856 156.172 102.888C149.025 95.8307 145.452 86.5847 145.452 75.15C145.452 63.9833 149.025 54.916 156.172 47.948C163.408 40.98 174.664 37.496 189.94 37.496C200.213 37.496 208.789 39.1933 215.668 42.588C222.636 45.8933 227.772 50.4047 231.078 56.122C234.383 61.75 236.036 68.0927 236.036 75.15C236.036 86.674 232.194 95.92 224.512 102.888C216.918 109.856 205.394 113.34 189.94 113.34ZM190.476 90.56C196.282 90.56 200.615 89.1753 203.474 86.406C206.332 83.6367 207.762 79.9293 207.762 75.284C207.762 70.9067 206.332 67.3333 203.474 64.564C200.615 61.7053 196.282 60.276 190.476 60.276C184.669 60.276 180.426 61.6607 177.746 64.43C175.066 67.1993 173.726 70.8173 173.726 75.284C173.726 79.9293 175.066 83.6367 177.746 86.406C180.426 89.1753 184.669 90.56 190.476 90.56ZM276.548 58.668C280.3 45.1787 289.635 38.434 304.554 38.434C307.144 38.434 309.646 38.6127 312.058 38.97L307.77 68.986C301.338 66.574 296.067 65.368 291.958 65.368C286.866 65.368 283.114 66.8867 280.702 69.924C278.29 72.9613 277.084 77.026 277.084 82.118V81.984L276.95 90.828C276.95 97.1707 277.128 104.228 277.486 112H245.46C246.174 99.136 246.532 86.9867 246.532 75.552C246.532 64.1173 246.174 51.8787 245.46 38.836C251.356 39.104 255.867 39.238 258.994 39.238C262.299 39.238 266.81 39.104 272.528 38.836L276.548 58.668ZM389.627 78.5H345.943C346.658 82.4307 348.4 85.6467 351.169 88.148C354.028 90.56 358.048 91.766 363.229 91.766C366.981 91.766 370.51 91.0513 373.815 89.622C377.12 88.1033 379.756 86.004 381.721 83.324C387.706 86.272 395.657 89.4433 405.573 92.838C402.804 99.0913 397.756 104.094 390.431 107.846C383.195 111.509 373.726 113.34 362.023 113.34C346.836 113.34 335.58 109.856 328.255 102.888C321.019 95.8307 317.401 86.5847 317.401 75.15C317.401 63.9833 321.019 54.916 328.255 47.948C335.491 40.98 346.747 37.496 362.023 37.496C371.135 37.496 379.041 39.0147 385.741 42.052C392.441 45.0893 397.578 49.3327 401.151 54.782C404.724 60.142 406.511 66.306 406.511 73.274C406.511 75.5967 406.422 77.3387 406.243 78.5H389.627ZM363.899 57.73C359.432 57.73 355.77 58.5787 352.911 60.276C350.052 61.9733 348.042 64.296 346.881 67.244H378.505C377.433 64.3853 375.691 62.1073 373.279 60.41C370.867 58.6233 367.74 57.73 363.899 57.73ZM458.987 113.34C443.711 113.34 432.455 109.856 425.219 102.888C418.072 95.8307 414.499 86.5847 414.499 75.15C414.499 63.9833 418.072 54.916 425.219 47.948C432.455 40.98 443.711 37.496 458.987 37.496C469.26 37.496 477.836 39.1933 484.715 42.588C491.683 45.8933 496.819 50.4047 500.125 56.122C503.43 61.75 505.083 68.0927 505.083 75.15C505.083 86.674 501.241 95.92 493.559 102.888C485.965 109.856 474.441 113.34 458.987 113.34ZM459.523 90.56C465.329 90.56 469.662 89.1753 472.521 86.406C475.379 83.6367 476.809 79.9293 476.809 75.284C476.809 70.9067 475.379 67.3333 472.521 64.564C469.662 61.7053 465.329 60.276 459.523 60.276C453.716 60.276 449.473 61.6607 446.793 64.43C444.113 67.1993 442.773 70.8173 442.773 75.284C442.773 79.9293 444.113 83.6367 446.793 86.406C449.473 89.1753 453.716 90.56 459.523 90.56ZM566.766 112C567.302 98.868 567.57 86.7633 567.57 75.686C567.57 71.7553 566.588 68.6287 564.622 66.306C562.746 63.9833 560.334 62.822 557.386 62.822C554.438 62.822 551.937 64.162 549.882 66.842C547.828 69.4327 546.622 73.006 546.264 77.562C546.086 84.3513 545.996 89.1753 545.996 92.034C545.996 98.1087 546.175 104.764 546.532 112H514.506C515.221 99.136 515.578 86.9867 515.578 75.552C515.578 64.1173 515.221 51.8787 514.506 38.836C520.402 39.104 524.914 39.238 528.04 39.238C531.346 39.238 535.857 39.104 541.574 38.836L545.46 58.534C547.515 51.3873 550.731 46.1167 555.108 42.722C559.486 39.238 564.578 37.496 570.384 37.496C575.744 37.496 580.39 38.702 584.32 41.114C588.251 43.4367 591.199 46.608 593.164 50.628C595.219 54.648 596.246 59.1593 596.246 64.162V83.458C596.246 95.3393 596.47 104.853 596.916 112H566.766ZM663.958 79.438H606.338V53.308H663.958V79.438ZM777.89 39.774H704.994V53.844C709.55 53.9333 716.384 53.978 725.496 53.978C741.218 53.978 757.209 53.71 773.468 53.174V79.438C757.209 78.8127 740.057 78.5 722.012 78.5C714.508 78.5 708.835 78.5447 704.994 78.634V112H673.37C674.084 94.6693 674.442 78.4553 674.442 63.358C674.442 48.2607 674.084 32.0467 673.37 14.716H777.89V39.774ZM806.613 30.93C800.985 30.93 796.786 29.5453 794.017 26.776C791.337 24.0067 789.997 20.3887 789.997 15.922C789.997 11.5447 791.337 7.92666 794.017 5.06799C796.786 2.20933 800.985 0.779994 806.613 0.779994C811.973 0.779994 816.082 2.25399 818.941 5.20199C821.8 8.06066 823.229 11.634 823.229 15.922C823.229 20.3887 821.844 24.0067 819.075 26.776C816.306 29.5453 812.152 30.93 806.613 30.93ZM791.069 112C791.694 97.6173 792.007 85.736 792.007 76.356C792.007 65.1893 791.65 52.6827 790.935 38.836H823.095C822.38 52.1467 822.023 64.6533 822.023 76.356C822.023 86.1827 822.336 98.064 822.961 112H791.069ZM895.945 62.822C887.726 62.286 880.222 61.884 873.433 61.616L873.299 75.82C873.299 80.644 874.326 84.4407 876.381 87.21C878.525 89.89 882.277 91.23 887.637 91.23C889.691 91.23 891.657 91.0513 893.533 90.694C893.175 93.9993 892.997 97.3493 892.997 100.744C892.997 102.352 893.086 106.015 893.265 111.732C889.334 112.447 886.029 112.893 883.349 113.072C880.669 113.251 877.185 113.34 872.897 113.34C862.445 113.34 855.03 110.839 850.653 105.836C846.365 100.744 844.221 93.6867 844.221 84.664L844.355 62.018C840.156 62.1967 835.779 62.4647 831.223 62.822V39.104C835.868 39.104 839.799 37.63 843.015 34.682C846.231 31.734 848.151 28.2053 848.777 24.096H885.225C880.669 30.3493 875.621 35.352 870.083 39.104H895.945V62.822ZM956.204 112C956.74 98.868 957.008 86.7633 957.008 75.686C957.008 71.7553 956.025 68.6287 954.06 66.306C952.184 63.9833 949.772 62.822 946.824 62.822C943.876 62.822 941.375 64.162 939.32 66.842C937.265 69.4327 936.059 73.006 935.702 77.562C935.523 84.3513 935.434 89.1753 935.434 92.034C935.434 98.1087 935.613 104.764 935.97 112H903.944C904.659 99.136 905.016 86.9867 905.016 75.552C905.016 64.1173 904.659 51.8787 903.944 38.836C909.84 39.104 914.351 39.238 917.478 39.238C920.783 39.238 925.295 39.104 931.012 38.836L934.898 58.534C936.953 51.3873 940.169 46.1167 944.546 42.722C948.923 39.238 954.015 37.496 959.822 37.496C965.182 37.496 969.827 38.702 973.758 41.114C977.689 43.4367 980.637 46.608 982.602 50.628C984.657 54.648 985.684 59.1593 985.684 64.162V83.458C985.684 95.3393 985.907 104.853 986.354 112H956.204ZM1068 78.5H1024.32C1025.03 82.4307 1026.77 85.6467 1029.54 88.148C1032.4 90.56 1036.42 91.766 1041.6 91.766C1045.36 91.766 1048.88 91.0513 1052.19 89.622C1055.5 88.1033 1058.13 86.004 1060.1 83.324C1066.08 86.272 1074.03 89.4433 1083.95 92.838C1081.18 99.0913 1076.13 104.094 1068.81 107.846C1061.57 111.509 1052.1 113.34 1040.4 113.34C1025.21 113.34 1013.96 109.856 1006.63 102.888C999.394 95.8307 995.776 86.5847 995.776 75.15C995.776 63.9833 999.394 54.916 1006.63 47.948C1013.87 40.98 1025.12 37.496 1040.4 37.496C1049.51 37.496 1057.42 39.0147 1064.12 42.052C1070.82 45.0893 1075.95 49.3327 1079.53 54.782C1083.1 60.142 1084.89 66.306 1084.89 73.274C1084.89 75.5967 1084.8 77.3387 1084.62 78.5H1068ZM1042.27 57.73C1037.81 57.73 1034.14 58.5787 1031.29 60.276C1028.43 61.9733 1026.42 64.296 1025.26 67.244H1056.88C1055.81 64.3853 1054.07 62.1073 1051.65 60.41C1049.24 58.6233 1046.12 57.73 1042.27 57.73ZM1137.5 113.34C1129.99 113.34 1122.35 112.313 1114.58 110.258C1106.9 108.114 1099.66 104.898 1092.87 100.61L1106.94 81.448C1111.05 84.396 1116.01 86.7187 1121.82 88.416C1127.62 90.024 1132.63 90.828 1136.83 90.828C1140.85 90.828 1143.93 90.292 1146.07 89.22C1148.3 88.0587 1149.42 86.5847 1149.42 84.798C1149.42 83.3687 1148.89 82.252 1147.81 81.448C1146.74 80.644 1145.27 80.242 1143.39 80.242C1142.23 80.242 1140.89 80.2867 1139.37 80.376C1137.94 80.4653 1136.78 80.5547 1135.89 80.644C1131.24 81.18 1126.46 81.448 1121.55 81.448C1113.6 81.448 1107.12 79.974 1102.12 77.026C1097.21 73.9887 1094.75 69.0753 1094.75 62.286C1094.75 54.4247 1098.46 48.35 1105.87 44.062C1113.29 39.6847 1124.18 37.496 1138.57 37.496C1145.62 37.496 1152.73 38.5233 1159.87 40.578C1167.11 42.5433 1173.5 45.536 1179.04 49.556L1163.63 65.1C1158.53 62.42 1153.75 60.544 1149.29 59.472C1144.91 58.3107 1140.49 57.73 1136.02 57.73C1132.89 57.73 1130.21 58.3553 1127.98 59.606C1125.75 60.8567 1124.63 62.286 1124.63 63.894C1124.63 65.1447 1125.08 66.1273 1125.97 66.842C1126.95 67.5567 1128.2 67.914 1129.72 67.914C1131.24 67.914 1133.34 67.78 1136.02 67.512C1142.54 67.0653 1147.41 66.842 1150.63 66.842C1159.92 66.842 1167.11 68.4053 1172.2 71.532C1177.29 74.6587 1179.84 79.438 1179.84 85.87C1179.84 95.518 1176.09 102.531 1168.58 106.908C1161.08 111.196 1150.72 113.34 1137.5 113.34ZM1232.5 113.34C1225 113.34 1217.36 112.313 1209.59 110.258C1201.9 108.114 1194.67 104.898 1187.88 100.61L1201.95 81.448C1206.06 84.396 1211.01 86.7187 1216.82 88.416C1222.63 90.024 1227.63 90.828 1231.83 90.828C1235.85 90.828 1238.93 90.292 1241.08 89.22C1243.31 88.0587 1244.43 86.5847 1244.43 84.798C1244.43 83.3687 1243.89 82.252 1242.82 81.448C1241.75 80.644 1240.27 80.242 1238.4 80.242C1237.23 80.242 1235.89 80.2867 1234.38 80.376C1232.95 80.4653 1231.78 80.5547 1230.89 80.644C1226.25 81.18 1221.47 81.448 1216.55 81.448C1208.6 81.448 1202.13 79.974 1197.12 77.026C1192.21 73.9887 1189.75 69.0753 1189.75 62.286C1189.75 54.4247 1193.46 48.35 1200.88 44.062C1208.29 39.6847 1219.19 37.496 1233.57 37.496C1240.63 37.496 1247.73 38.5233 1254.88 40.578C1262.11 42.5433 1268.5 45.536 1274.04 49.556L1258.63 65.1C1253.54 62.42 1248.76 60.544 1244.29 59.472C1239.91 58.3107 1235.49 57.73 1231.03 57.73C1227.9 57.73 1225.22 58.3553 1222.99 59.606C1220.75 60.8567 1219.64 62.286 1219.64 63.894C1219.64 65.1447 1220.08 66.1273 1220.98 66.842C1221.96 67.5567 1223.21 67.914 1224.73 67.914C1226.25 67.914 1228.35 67.78 1231.03 67.512C1237.55 67.0653 1242.42 66.842 1245.63 66.842C1254.92 66.842 1262.11 68.4053 1267.21 71.532C1272.3 74.6587 1274.84 79.438 1274.84 85.87C1274.84 95.518 1271.09 102.531 1263.59 106.908C1256.08 111.196 1245.72 113.34 1232.5 113.34Z"/>
</mask>
<path d="M125.65 14.716L127.639 14.5024L127.447 12.716H125.65V14.716ZM136.102 112V114H138.328L138.091 111.786L136.102 112ZM101.396 112L99.397 112.062L99.4568 114H101.396V112ZM99.252 42.588L101.251 42.5263L97.2883 42.2089L99.252 42.588ZM85.852 112V114H87.5028L87.8158 112.379L85.852 112ZM50.744 112L48.7823 112.389L49.1019 114H50.744V112ZM37.076 43.124L39.0377 42.7347L35.0769 43.0657L37.076 43.124ZM35.066 112V114H37.0085L37.0652 112.058L35.066 112ZM0.360001 112L-1.62856 111.786L-1.86639 114H0.360001V112ZM10.812 14.716V12.716H9.01537L8.82345 14.5024L10.812 14.716ZM56.372 14.716L58.339 14.3542L58.0377 12.716H56.372V14.716ZM68.03 78.098L66.063 78.4598L70.0047 78.4153L68.03 78.098ZM78.214 14.716V12.716H76.5097L76.2393 14.3987L78.214 14.716ZM123.661 14.9296L134.113 112.214L138.091 111.786L127.639 14.5024L123.661 14.9296ZM136.102 110H101.396V114H136.102V110ZM103.395 111.938L101.251 42.5263L97.253 42.6497L99.397 112.062L103.395 111.938ZM97.2883 42.2089L83.8883 111.621L87.8158 112.379L101.216 42.9671L97.2883 42.2089ZM85.852 110H50.744V114H85.852V110ZM52.7057 111.611L39.0377 42.7347L35.1143 43.5133L48.7823 112.389L52.7057 111.611ZM35.0769 43.0657L33.0669 111.942L37.0652 112.058L39.0751 43.1823L35.0769 43.0657ZM35.066 110H0.360001V114H35.066V110ZM2.34856 112.214L12.8006 14.9296L8.82345 14.5024L-1.62856 111.786L2.34856 112.214ZM10.812 16.716H56.372V12.716H10.812V16.716ZM54.405 15.0778L66.063 78.4598L69.997 77.7362L58.339 14.3542L54.405 15.0778ZM70.0047 78.4153L80.1887 15.0333L76.2393 14.3987L66.0553 77.7807L70.0047 78.4153ZM78.214 16.716H125.65V12.716H78.214V16.716ZM156.172 102.888L154.766 104.311L154.775 104.32L154.784 104.329L156.172 102.888ZM156.172 47.948L154.784 46.5073L154.775 46.516L156.172 47.948ZM215.668 42.588L214.783 44.3815L214.796 44.3884L214.81 44.395L215.668 42.588ZM231.078 56.122L229.346 57.123L229.353 57.1348L231.078 56.122ZM224.512 102.888L223.168 101.407L223.159 101.414L224.512 102.888ZM203.474 64.564L202.059 65.9782L202.071 65.9894L202.082 66.0005L203.474 64.564ZM177.746 64.43L176.308 63.0392L177.746 64.43ZM177.746 86.406L179.183 85.0152L177.746 86.406ZM189.94 111.34C174.918 111.34 164.268 107.908 157.559 101.447L154.784 104.329C162.547 111.804 174.41 115.34 189.94 115.34V111.34ZM157.577 101.465C150.865 94.8365 147.452 86.1306 147.452 75.15H143.452C143.452 87.0388 147.185 96.8248 154.766 104.311L157.577 101.465ZM147.452 75.15C147.452 64.4523 150.855 55.9252 157.568 49.38L154.775 46.516C147.195 53.9068 143.452 63.5144 143.452 75.15H147.452ZM157.559 49.3886C164.268 42.928 174.918 39.496 189.94 39.496V35.496C174.41 35.496 162.547 39.032 154.784 46.5074L157.559 49.3886ZM189.94 39.496C200.005 39.496 208.256 41.1607 214.783 44.3815L216.553 40.7945C209.322 37.226 200.421 35.496 189.94 35.496V39.496ZM214.81 44.395C221.475 47.5565 226.276 51.8128 229.346 57.123L232.809 55.121C229.268 48.9966 223.796 44.2302 216.525 40.781L214.81 44.395ZM229.353 57.1348C232.463 62.431 234.036 68.4189 234.036 75.15H238.036C238.036 67.7665 236.302 61.069 232.802 55.1092L229.353 57.1348ZM234.036 75.15C234.036 86.1795 230.384 94.8621 223.168 101.407L225.855 104.369C234.005 96.9779 238.036 87.1685 238.036 75.15H234.036ZM223.159 101.414C216.082 107.909 205.138 111.34 189.94 111.34V115.34C205.651 115.34 217.754 111.803 225.864 104.362L223.159 101.414ZM190.476 92.56C196.565 92.56 201.492 91.11 204.865 87.8425L202.082 84.9695C199.738 87.2406 196 88.56 190.476 88.56V92.56ZM204.865 87.8425C208.178 84.6332 209.762 80.3726 209.762 75.284H205.762C205.762 79.4861 204.487 82.6402 202.082 84.9695L204.865 87.8425ZM209.762 75.284C209.762 70.4249 208.154 66.3132 204.865 63.1275L202.082 66.0005C204.511 68.3535 205.762 71.3884 205.762 75.284H209.762ZM204.888 63.1498C201.517 59.7786 196.58 58.276 190.476 58.276V62.276C195.984 62.276 199.713 63.6321 202.059 65.9782L204.888 63.1498ZM190.476 58.276C184.399 58.276 179.52 59.7207 176.308 63.0392L179.183 65.8208C181.331 63.6006 184.939 62.276 190.476 62.276V58.276ZM176.308 63.0392C173.21 66.2408 171.726 70.3871 171.726 75.284H175.726C175.726 71.2476 176.921 68.1578 179.183 65.8208L176.308 63.0392ZM171.726 75.284C171.726 80.335 173.196 84.5803 176.308 87.7968L179.183 85.0152C176.936 82.6931 175.726 79.5236 175.726 75.284H171.726ZM176.308 87.7968C179.52 91.1153 184.399 92.56 190.476 92.56V88.56C184.939 88.56 181.331 87.2354 179.183 85.0152L176.308 87.7968ZM276.548 58.668L274.587 59.0653L278.474 59.2039L276.548 58.668ZM312.058 38.97L314.038 39.2528L314.319 37.2832L312.351 36.9916L312.058 38.97ZM307.77 68.986L307.067 70.8587L309.398 71.7325L309.75 69.2688L307.77 68.986ZM280.702 69.924L279.135 68.6802L280.702 69.924ZM277.084 81.984H279.084L275.084 81.9537L277.084 81.984ZM276.95 90.828L274.95 90.7977L274.95 90.8129V90.828H276.95ZM277.486 112V114H279.58L279.483 111.908L277.486 112ZM245.46 112L243.463 111.889L243.345 114H245.46V112ZM245.46 38.836L245.55 36.8381L243.342 36.7377L243.463 38.9454L245.46 38.836ZM272.528 38.836L274.488 38.4387L274.147 36.7579L272.434 36.8382L272.528 38.836ZM278.474 59.2039C280.256 52.7989 283.309 48.1667 287.534 45.1136C291.773 42.0515 297.391 40.434 304.554 40.434V36.434C296.798 36.434 290.289 38.1889 285.192 41.8713C280.082 45.5629 276.591 51.0477 274.621 58.132L278.474 59.2039ZM304.554 40.434C307.052 40.434 309.455 40.6063 311.764 40.9484L312.351 36.9916C309.836 36.619 307.236 36.434 304.554 36.434V40.434ZM310.078 38.6872L305.79 68.7032L309.75 69.2688L314.038 39.2528L310.078 38.6872ZM308.472 67.1133C301.945 64.6659 296.415 63.368 291.958 63.368V67.368C295.719 67.368 300.73 68.4821 307.067 70.8587L308.472 67.1133ZM291.958 63.368C286.462 63.368 282.039 65.0242 279.135 68.6802L282.268 71.1678C284.189 68.7491 287.27 67.368 291.958 67.368V63.368ZM279.135 68.6802C276.365 72.1685 275.084 76.7164 275.084 82.118H279.084C279.084 77.3356 280.214 73.7542 282.268 71.1678L279.135 68.6802ZM279.084 82.118V81.984H275.084V82.118H279.084ZM275.084 81.9537L274.95 90.7977L278.949 90.8583L279.083 82.0143L275.084 81.9537ZM274.95 90.828C274.95 97.2072 275.129 104.296 275.488 112.092L279.483 111.908C279.127 104.16 278.95 97.1341 278.95 90.828H274.95ZM277.486 110H245.46V114H277.486V110ZM247.457 112.111C248.173 99.2145 248.532 87.028 248.532 75.552H244.532C244.532 86.9454 244.176 99.0575 243.463 111.889L247.457 112.111ZM248.532 75.552C248.532 64.0761 248.173 51.8007 247.457 38.7266L243.463 38.9454C244.176 51.9567 244.532 64.1585 244.532 75.552H248.532ZM245.369 40.8339C251.274 41.1023 255.821 41.238 258.994 41.238V37.238C255.913 37.238 251.438 37.1057 245.55 36.8381L245.369 40.8339ZM258.994 41.238C262.345 41.238 266.892 41.1024 272.621 40.8338L272.434 36.8382C266.729 37.1056 262.253 37.238 258.994 37.238V41.238ZM270.567 39.2333L274.587 59.0653L278.508 58.2707L274.488 38.4387L270.567 39.2333ZM345.943 78.5V76.5H343.546L343.975 78.8578L345.943 78.5ZM351.169 88.148L349.828 89.6322L349.853 89.6548L349.879 89.6766L351.169 88.148ZM373.815 89.622L374.609 91.4577L374.629 91.4488L374.65 91.4393L373.815 89.622ZM381.721 83.324L382.605 81.5298L381.1 80.7887L380.108 82.1413L381.721 83.324ZM405.573 92.838L407.402 93.6479L408.285 91.6526L406.221 90.9458L405.573 92.838ZM390.431 107.846L391.334 109.63L391.343 109.626L390.431 107.846ZM328.255 102.888L326.858 104.32L326.867 104.329L326.876 104.337L328.255 102.888ZM328.255 47.948L329.642 49.3886L328.255 47.948ZM385.741 42.052L384.915 43.8736V43.8736L385.741 42.052ZM401.151 54.782L399.478 55.8787L399.483 55.8851L399.487 55.8914L401.151 54.782ZM406.243 78.5V80.5H407.959L408.22 78.8041L406.243 78.5ZM352.911 60.276L353.932 61.9957V61.9957L352.911 60.276ZM346.881 67.244L345.02 66.5109L343.943 69.244H346.881V67.244ZM378.505 67.244V69.244H381.391L380.378 66.5417L378.505 67.244ZM373.279 60.41L372.088 62.0171L372.108 62.0316L372.128 62.0456L373.279 60.41ZM389.627 76.5H345.943V80.5H389.627V76.5ZM343.975 78.8578C344.763 83.1901 346.707 86.8134 349.828 89.6322L352.509 86.6638C350.092 84.48 348.552 81.6712 347.911 78.1422L343.975 78.8578ZM349.879 89.6766C353.216 92.4922 357.756 93.766 363.229 93.766V89.766C358.339 89.766 354.839 88.6278 352.459 86.6194L349.879 89.6766ZM363.229 93.766C367.242 93.766 371.042 93 374.609 91.4577L373.021 87.7863C369.977 89.1027 366.719 89.766 363.229 89.766V93.766ZM374.65 91.4393C378.234 89.7925 381.149 87.4864 383.334 84.5067L380.108 82.1413C378.362 84.5216 376.006 86.4142 372.98 87.8046L374.65 91.4393ZM380.837 85.1182C386.929 88.1188 394.968 91.3216 404.925 94.7302L406.221 90.9458C396.345 87.5651 388.483 84.4252 382.605 81.5298L380.837 85.1182ZM403.744 92.0282C401.196 97.782 396.523 102.479 389.519 106.066L391.343 109.626C398.99 105.709 404.411 100.401 407.402 93.6479L403.744 92.0282ZM389.528 106.062C382.668 109.534 373.541 111.34 362.023 111.34V115.34C373.91 115.34 383.722 113.484 391.334 109.63L389.528 106.062ZM362.023 111.34C347.097 111.34 336.437 107.911 329.633 101.439L326.876 104.337C334.723 111.801 346.576 115.34 362.023 115.34V111.34ZM329.651 101.456C322.853 94.8261 319.401 86.123 319.401 75.15H315.401C315.401 87.0463 319.184 96.8352 326.858 104.32L329.651 101.456ZM319.401 75.15C319.401 64.46 322.843 55.9357 329.642 49.3886L326.868 46.5074C319.194 53.8963 315.401 63.5067 315.401 75.15H319.401ZM329.642 49.3886C336.351 42.928 347.001 39.496 362.023 39.496V35.496C346.493 35.496 334.63 39.032 326.868 46.5074L329.642 49.3886ZM362.023 39.496C370.916 39.496 378.529 40.9784 384.915 43.8736L386.567 40.2304C379.553 37.0509 371.354 35.496 362.023 35.496V39.496ZM384.915 43.8736C391.316 46.7751 396.139 50.7859 399.478 55.8787L402.823 53.6853C399.016 47.8794 393.566 43.4035 386.567 40.2304L384.915 43.8736ZM399.487 55.8914C402.823 60.8959 404.511 66.6671 404.511 73.274H408.511C408.511 65.9449 406.625 59.3881 402.815 53.6726L399.487 55.8914ZM404.511 73.274C404.511 75.5729 404.421 77.1906 404.266 78.1959L408.22 78.8041C408.422 77.4867 408.511 75.6204 408.511 73.274H404.511ZM406.243 76.5H389.627V80.5H406.243V76.5ZM363.899 55.73C359.192 55.73 355.146 56.6229 351.89 58.5563L353.932 61.9957C356.393 60.5344 359.672 59.73 363.899 59.73V55.73ZM351.89 58.5563C348.67 60.4682 346.352 63.1287 345.02 66.5109L348.742 67.977C349.732 65.4633 351.435 63.4784 353.932 61.9957L351.89 58.5563ZM346.881 69.244H378.505V65.244H346.881V69.244ZM380.378 66.5417C379.17 63.3205 377.183 60.7117 374.43 58.7744L372.128 62.0456C374.199 63.503 375.696 65.4501 376.632 67.9462L380.378 66.5417ZM374.469 58.8029C371.627 56.6976 368.048 55.73 363.899 55.73V59.73C367.432 59.73 370.107 60.5491 372.088 62.0171L374.469 58.8029ZM425.219 102.888L423.813 104.311L423.822 104.32L423.831 104.329L425.219 102.888ZM425.219 47.948L423.831 46.5073L423.822 46.516L425.219 47.948ZM484.715 42.588L483.829 44.3815L483.843 44.3884L483.857 44.395L484.715 42.588ZM500.125 56.122L498.393 57.123L498.4 57.1348L500.125 56.122ZM493.559 102.888L492.215 101.407L492.206 101.414L493.559 102.888ZM472.521 64.564L471.106 65.9782L471.118 65.9894L471.129 66.0005L472.521 64.564ZM446.793 64.43L445.355 63.0392L446.793 64.43ZM446.793 86.406L448.23 85.0152L446.793 86.406ZM458.987 111.34C443.965 111.34 433.315 107.908 426.606 101.447L423.831 104.329C431.594 111.804 443.456 115.34 458.987 115.34V111.34ZM426.624 101.465C419.911 94.8365 416.499 86.1306 416.499 75.15H412.499C412.499 87.0388 416.232 96.8248 423.813 104.311L426.624 101.465ZM416.499 75.15C416.499 64.4523 419.902 55.9252 426.615 49.38L423.822 46.516C416.242 53.9068 412.499 63.5144 412.499 75.15H416.499ZM426.606 49.3886C433.315 42.928 443.965 39.496 458.987 39.496V35.496C443.456 35.496 431.594 39.032 423.831 46.5074L426.606 49.3886ZM458.987 39.496C469.052 39.496 477.303 41.1607 483.829 44.3815L485.6 40.7945C478.369 37.226 469.467 35.496 458.987 35.496V39.496ZM483.857 44.395C490.522 47.5565 495.323 51.8128 498.393 57.123L501.856 55.121C498.315 48.9966 492.843 44.2302 485.572 40.781L483.857 44.395ZM498.4 57.1348C501.51 62.431 503.083 68.4189 503.083 75.15H507.083C507.083 67.7665 505.349 61.069 501.849 55.1092L498.4 57.1348ZM503.083 75.15C503.083 86.1795 499.431 94.8621 492.215 101.407L494.902 104.369C503.052 96.9779 507.083 87.1685 507.083 75.15H503.083ZM492.206 101.414C485.129 107.909 474.185 111.34 458.987 111.34V115.34C474.698 115.34 486.801 111.803 494.911 104.362L492.206 101.414ZM459.523 92.56C465.612 92.56 470.539 91.11 473.912 87.8425L471.129 84.9695C468.785 87.2406 465.047 88.56 459.523 88.56V92.56ZM473.912 87.8425C477.225 84.6332 478.809 80.3726 478.809 75.284H474.809C474.809 79.4861 473.533 82.6402 471.129 84.9695L473.912 87.8425ZM478.809 75.284C478.809 70.4249 477.201 66.3132 473.912 63.1275L471.129 66.0005C473.558 68.3535 474.809 71.3884 474.809 75.284H478.809ZM473.935 63.1498C470.564 59.7786 465.627 58.276 459.523 58.276V62.276C465.031 62.276 468.76 63.6321 471.106 65.9782L473.935 63.1498ZM459.523 58.276C453.446 58.276 448.567 59.7207 445.355 63.0392L448.23 65.8208C450.378 63.6006 453.985 62.276 459.523 62.276V58.276ZM445.355 63.0392C442.257 66.2408 440.773 70.3871 440.773 75.284H444.773C444.773 71.2476 445.968 68.1578 448.23 65.8208L445.355 63.0392ZM440.773 75.284C440.773 80.335 442.242 84.5803 445.355 87.7968L448.23 85.0152C445.983 82.6931 444.773 79.5236 444.773 75.284H440.773ZM445.355 87.7968C448.567 91.1153 453.446 92.56 459.523 92.56V88.56C453.985 88.56 450.378 87.2354 448.23 85.0152L445.355 87.7968ZM566.766 112L564.768 111.918L564.683 114H566.766V112ZM564.622 66.306L563.067 67.5627L563.081 67.5804L563.096 67.5979L564.622 66.306ZM549.883 66.842L551.449 68.0848L551.46 68.0719L551.47 68.0589L549.883 66.842ZM546.264 77.562L544.271 77.4056L544.267 77.4574L544.265 77.5094L546.264 77.562ZM546.532 112V114H548.634L548.53 111.901L546.532 112ZM514.506 112L512.51 111.889L512.392 114H514.506V112ZM514.506 38.836L514.597 36.8381L512.388 36.7377L512.509 38.9454L514.506 38.836ZM541.574 38.836L543.537 38.4489L543.203 36.7575L541.481 36.8382L541.574 38.836ZM545.461 58.534L543.498 58.9211L547.383 59.0866L545.461 58.534ZM555.108 42.722L556.334 44.3024L556.344 44.2947L556.354 44.2868L555.108 42.722ZM584.32 41.114L583.274 42.8186L583.289 42.8274L583.303 42.8358L584.32 41.114ZM593.164 50.628L591.368 51.5064L591.376 51.5224L591.384 51.5382L593.164 50.628ZM596.917 112V114H599.045L598.913 111.875L596.917 112ZM568.765 112.082C569.302 98.9272 569.57 86.795 569.57 75.686H565.57C565.57 86.7317 565.303 98.8088 564.768 111.918L568.765 112.082ZM569.57 75.686C569.57 71.4231 568.5 67.7925 566.149 65.0141L563.096 67.5979C564.675 69.4648 565.57 72.0876 565.57 75.686H569.57ZM566.178 65.0493C563.928 62.2635 560.948 60.822 557.386 60.822V64.822C559.721 64.822 561.565 65.7031 563.067 67.5627L566.178 65.0493ZM557.386 60.822C553.72 60.822 550.666 62.5331 548.295 65.6251L551.47 68.0589C553.208 65.7909 555.157 64.822 557.386 64.822V60.822ZM548.315 65.5992C545.936 68.5997 544.648 72.5998 544.271 77.4056L548.258 77.7184C548.596 73.4122 549.72 70.2656 551.449 68.0848L548.315 65.5992ZM544.265 77.5094C544.086 84.299 543.996 89.1464 543.996 92.034H547.996C547.996 89.2043 548.085 84.4036 548.264 77.6146L544.265 77.5094ZM543.996 92.034C543.996 98.1471 544.176 104.836 544.535 112.099L548.53 111.901C548.174 104.692 547.996 98.0702 547.996 92.034H543.996ZM546.532 110H514.506V114H546.532V110ZM516.503 112.111C517.22 99.2145 517.578 87.028 517.578 75.552H513.578C513.578 86.9454 513.222 99.0575 512.51 111.889L516.503 112.111ZM517.578 75.552C517.578 64.0761 517.22 51.8007 516.503 38.7266L512.509 38.9454C513.222 51.9567 513.578 64.1585 513.578 75.552H517.578ZM514.416 40.8339C520.32 41.1023 524.868 41.238 528.04 41.238V37.238C524.96 37.238 520.484 37.1057 514.597 36.8381L514.416 40.8339ZM528.04 41.238C531.392 41.238 535.939 41.1024 541.668 40.8338L541.481 36.8382C535.776 37.1056 531.3 37.238 528.04 37.238V41.238ZM539.612 39.2231L543.498 58.9211L547.423 58.1469L543.537 38.4489L539.612 39.2231ZM547.383 59.0866C549.36 52.2098 552.39 47.3611 556.334 44.3024L553.883 41.1416C549.072 44.8722 545.671 50.5648 543.538 57.9814L547.383 59.0866ZM556.354 44.2868C560.363 41.0959 565.012 39.496 570.384 39.496V35.496C564.144 35.496 558.609 37.3801 553.863 41.1572L556.354 44.2868ZM570.384 39.496C575.436 39.496 579.707 40.6293 583.274 42.8186L585.367 39.4093C581.073 36.7747 576.053 35.496 570.384 35.496V39.496ZM583.303 42.8358C586.904 44.9639 589.578 47.8452 591.368 51.5064L594.961 49.7496C592.82 45.3708 589.598 41.9094 585.338 39.3921L583.303 42.8358ZM591.384 51.5382C593.279 55.247 594.246 59.4411 594.246 64.162H598.246C598.246 58.8776 597.159 54.0489 594.945 49.7178L591.384 51.5382ZM594.246 64.162V83.458H598.246V64.162H594.246ZM594.246 83.458C594.246 95.3577 594.47 104.919 594.92 112.125L598.913 111.875C598.47 104.788 598.246 95.3209 598.246 83.458H594.246ZM596.917 110H566.766V114H596.917V110ZM663.958 79.438V81.438H665.958V79.438H663.958ZM606.338 79.438H604.338V81.438H606.338V79.438ZM606.338 53.308V51.308H604.338V53.308H606.338ZM663.958 53.308H665.958V51.308H663.958V53.308ZM663.958 77.438H606.338V81.438H663.958V77.438ZM608.338 79.438V53.308H604.338V79.438H608.338ZM606.338 55.308H663.958V51.308H606.338V55.308ZM661.958 53.308V79.438H665.958V53.308H661.958ZM777.89 39.774V41.774H779.89V39.774H777.89ZM704.994 39.774V37.774H702.994V39.774H704.994ZM704.994 53.844H702.994V55.8052L704.955 55.8436L704.994 53.844ZM773.468 53.174H775.468V51.107L773.402 51.1751L773.468 53.174ZM773.468 79.438L773.391 81.4365L775.468 81.5164V79.438H773.468ZM704.994 78.634L704.947 76.6345L702.994 76.68V78.634H704.994ZM704.994 112V114H706.994V112H704.994ZM673.37 112L671.371 111.918L671.286 114H673.37V112ZM673.37 14.716V12.716H671.286L671.371 14.7984L673.37 14.716ZM777.89 14.716H779.89V12.716H777.89V14.716ZM777.89 37.774H704.994V41.774H777.89V37.774ZM702.994 39.774V53.844H706.994V39.774H702.994ZM704.955 55.8436C709.531 55.9333 716.381 55.978 725.496 55.978V51.978C716.387 51.978 709.569 51.9333 705.033 51.8444L704.955 55.8436ZM725.496 55.978C741.241 55.978 757.254 55.7096 773.534 55.1729L773.402 51.1751C757.164 51.7104 741.196 51.978 725.496 51.978V55.978ZM771.468 53.174V79.438H775.468V53.174H771.468ZM773.545 77.4395C757.258 76.8131 740.08 76.5 722.012 76.5V80.5C740.034 80.5 757.16 80.8123 773.391 81.4365L773.545 77.4395ZM722.012 76.5C714.504 76.5 708.812 76.5447 704.947 76.6345L705.04 80.6335C708.858 80.5447 714.512 80.5 722.012 80.5V76.5ZM702.994 78.634V112H706.994V78.634H702.994ZM704.994 110H673.37V114H704.994V110ZM675.368 112.082C676.084 94.7282 676.442 78.4865 676.442 63.358H672.442C672.442 78.4242 672.085 94.6104 671.371 111.918L675.368 112.082ZM676.442 63.358C676.442 48.2295 676.084 31.9878 675.368 14.6336L671.371 14.7984C672.085 32.1056 672.442 48.2918 672.442 63.358H676.442ZM673.37 16.716H777.89V12.716H673.37V16.716ZM775.89 14.716V39.774H779.89V14.716H775.89ZM794.017 26.776L792.58 28.1668L792.591 28.1786L792.603 28.1902L794.017 26.776ZM794.017 5.06799L792.58 3.6764L792.569 3.68817L792.558 3.70011L794.017 5.06799ZM818.941 5.20199L817.505 6.59428L817.516 6.60533L817.527 6.61621L818.941 5.20199ZM819.075 26.776L820.489 28.1902L819.075 26.776ZM791.069 112L789.071 111.913L788.98 114H791.069V112ZM790.935 38.836V36.836H788.829L788.938 38.9391L790.935 38.836ZM823.095 38.836L825.092 38.9432L825.205 36.836H823.095V38.836ZM822.961 112V114H825.053L824.959 111.91L822.961 112ZM806.613 28.93C801.282 28.93 797.688 27.6184 795.431 25.3618L792.603 28.1902C795.885 31.4723 800.687 32.93 806.613 32.93V28.93ZM795.454 25.3852C793.192 23.0481 791.997 19.9584 791.997 15.922H787.997C787.997 20.8189 789.481 24.9652 792.58 28.1668L795.454 25.3852ZM791.997 15.922C791.997 11.9883 793.185 8.87937 795.476 6.43588L792.558 3.70011C789.489 6.97396 787.997 11.101 787.997 15.922H791.997ZM795.453 6.45959C797.712 4.1276 801.299 2.77999 806.613 2.77999V-1.22001C800.671 -1.22001 795.86 0.291058 792.58 3.6764L795.453 6.45959ZM806.613 2.77999C811.605 2.77999 815.128 4.14338 817.505 6.59428L820.377 3.8097C817.036 0.364609 812.341 -1.22001 806.613 -1.22001V2.77999ZM817.527 6.61621C819.986 9.07528 821.229 12.1287 821.229 15.922H825.229C825.229 11.1393 823.613 7.04604 820.355 3.78778L817.527 6.61621ZM821.229 15.922C821.229 19.9392 820.001 23.0212 817.661 25.3618L820.489 28.1902C823.687 24.9921 825.229 20.8381 825.229 15.922H821.229ZM817.661 25.3618C815.399 27.6238 811.843 28.93 806.613 28.93V32.93C812.46 32.93 817.212 31.4669 820.489 28.1902L817.661 25.3618ZM793.067 112.087C793.693 97.6888 794.007 85.7759 794.007 76.356H790.007C790.007 85.6961 789.695 97.5459 789.071 111.913L793.067 112.087ZM794.007 76.356C794.007 65.1479 793.648 52.6061 792.932 38.7329L788.938 38.9391C789.651 52.7592 790.007 65.2307 790.007 76.356H794.007ZM790.935 40.836H823.095V36.836H790.935V40.836ZM821.098 38.7288C820.381 52.0704 820.023 64.6131 820.023 76.356H824.023C824.023 64.6936 824.379 52.223 825.092 38.9432L821.098 38.7288ZM820.023 76.356C820.023 86.222 820.337 98.1351 820.963 112.09L824.959 111.91C824.334 97.993 824.023 86.1433 824.023 76.356H820.023ZM822.961 110H791.069V114H822.961V110ZM895.945 62.822L895.815 64.8178L897.945 64.9567V62.822H895.945ZM873.433 61.616L873.512 59.6176L871.452 59.5363L871.433 61.5971L873.433 61.616ZM873.299 75.82L871.299 75.8011L871.299 75.8106V75.82H873.299ZM876.381 87.21L874.775 88.4017L874.796 88.431L874.819 88.4594L876.381 87.21ZM893.533 90.694L895.521 90.909L895.812 88.224L893.159 88.7293L893.533 90.694ZM893.265 111.732L893.623 113.7L895.318 113.392L895.264 111.67L893.265 111.732ZM850.653 105.836L849.123 107.124L849.135 107.139L849.148 107.153L850.653 105.836ZM844.221 84.664L842.221 84.6522V84.664H844.221ZM844.355 62.018L846.355 62.0298L846.367 59.9305L844.27 60.0198L844.355 62.018ZM831.223 62.822H829.223V64.985L831.379 64.8159L831.223 62.822ZM831.223 39.104V37.104H829.223V39.104H831.223ZM843.015 34.682L844.366 36.1563L843.015 34.682ZM848.777 24.096V22.096H847.058L846.8 23.7951L848.777 24.096ZM885.225 24.096L886.841 25.2737L889.156 22.096H885.225V24.096ZM870.083 39.104L868.961 37.4482L863.564 41.104H870.083V39.104ZM895.945 39.104H897.945V37.104H895.945V39.104ZM896.075 60.8262C887.843 60.2893 880.321 59.8864 873.512 59.6176L873.354 63.6144C880.123 63.8816 887.61 64.2826 895.815 64.8178L896.075 60.8262ZM871.433 61.5971L871.299 75.8011L875.299 75.8389L875.433 61.6349L871.433 61.5971ZM871.299 75.82C871.299 80.9063 872.38 85.1742 874.775 88.4017L877.987 86.0183C876.272 83.7071 875.299 80.3817 875.299 75.82H871.299ZM874.819 88.4594C877.515 91.8295 882.013 93.23 887.637 93.23V89.23C882.54 89.23 879.534 87.9505 877.943 85.9606L874.819 88.4594ZM887.637 93.23C889.808 93.23 891.899 93.0412 893.907 92.6587L893.159 88.7293C891.415 89.0615 889.575 89.23 887.637 89.23V93.23ZM891.544 90.479C891.179 93.8573 890.997 97.279 890.997 100.744H894.997C894.997 97.4196 895.172 94.1414 895.521 90.909L891.544 90.479ZM890.997 100.744C890.997 102.39 891.087 106.086 891.266 111.794L895.264 111.67C895.085 105.943 894.997 102.314 894.997 100.744H890.997ZM892.907 109.764C889.019 110.471 885.794 110.905 883.216 111.076L883.482 115.068C886.264 114.882 889.65 114.422 893.623 113.7L892.907 109.764ZM883.216 111.076C880.598 111.251 877.163 111.34 872.897 111.34V115.34C877.206 115.34 880.74 115.25 883.482 115.068L883.216 111.076ZM872.897 111.34C862.695 111.34 855.983 108.891 852.158 104.519L849.148 107.153C854.077 112.787 862.195 115.34 872.897 115.34V111.34ZM852.183 104.548C848.291 99.9267 846.221 93.3831 846.221 84.664H842.221C842.221 93.9902 844.438 101.561 849.123 107.124L852.183 104.548ZM846.221 84.6758L846.355 62.0298L842.355 62.0062L842.221 84.6522L846.221 84.6758ZM844.27 60.0198C840.045 60.1996 835.644 60.4691 831.066 60.8281L831.379 64.8159C835.913 64.4602 840.267 64.1938 844.44 64.0162L844.27 60.0198ZM833.223 62.822V39.104H829.223V62.822H833.223ZM831.223 41.104C836.333 41.104 840.756 39.4657 844.366 36.1563L841.663 33.2077C838.842 35.7943 835.403 37.104 831.223 37.104V41.104ZM844.366 36.1563C847.901 32.9165 850.057 28.9808 850.754 24.3969L846.8 23.7951C846.246 27.4298 844.561 30.5515 841.663 33.2077L844.366 36.1563ZM848.777 26.096H885.225V22.096H848.777V26.096ZM883.608 22.9183C879.167 29.0136 874.281 33.8443 868.961 37.4482L871.205 40.7598C876.962 36.8597 882.17 31.6851 886.841 25.2737L883.608 22.9183ZM870.083 41.104H895.945V37.104H870.083V41.104ZM893.945 39.104V62.822H897.945V39.104H893.945ZM956.204 112L954.206 111.918L954.121 114H956.204V112ZM954.06 66.306L952.504 67.5627L952.518 67.5804L952.533 67.5979L954.06 66.306ZM939.32 66.842L940.887 68.0848L940.897 68.0719L940.907 68.0589L939.32 66.842ZM935.702 77.562L933.708 77.4056L933.704 77.4574L933.703 77.5094L935.702 77.562ZM935.97 112V114H938.071L937.968 111.901L935.97 112ZM903.944 112L901.947 111.889L901.83 114H903.944V112ZM903.944 38.836L904.035 36.8381L901.826 36.7377L901.947 38.9454L903.944 38.836ZM931.012 38.836L932.974 38.4489L932.641 36.7575L930.918 36.8382L931.012 38.836ZM934.898 58.534L932.936 58.9211L936.82 59.0866L934.898 58.534ZM944.546 42.722L945.772 44.3024L945.782 44.2947L945.792 44.2868L944.546 42.722ZM973.758 41.114L972.712 42.8186L972.726 42.8274L972.741 42.8358L973.758 41.114ZM982.602 50.628L980.805 51.5064L980.813 51.5224L980.821 51.5382L982.602 50.628ZM986.354 112V114H988.483L988.35 111.875L986.354 112ZM958.202 112.082C958.739 98.9272 959.008 86.795 959.008 75.686H955.008C955.008 86.7317 954.741 98.8088 954.206 111.918L958.202 112.082ZM959.008 75.686C959.008 71.4231 957.938 67.7925 955.587 65.0141L952.533 67.5979C954.113 69.4648 955.008 72.0876 955.008 75.686H959.008ZM955.616 65.0493C953.366 62.2635 950.385 60.822 946.824 60.822V64.822C949.159 64.822 951.002 65.7031 952.504 67.5627L955.616 65.0493ZM946.824 60.822C943.158 60.822 940.103 62.5331 937.733 65.6251L940.907 68.0589C942.646 65.7909 944.594 64.822 946.824 64.822V60.822ZM937.753 65.5992C935.373 68.5997 934.085 72.5998 933.708 77.4056L937.696 77.7184C938.034 73.4122 939.157 70.2656 940.887 68.0848L937.753 65.5992ZM933.703 77.5094C933.524 84.299 933.434 89.1464 933.434 92.034H937.434C937.434 89.2043 937.523 84.4036 937.701 77.6146L933.703 77.5094ZM933.434 92.034C933.434 98.1471 933.614 104.836 933.972 112.099L937.968 111.901C937.612 104.692 937.434 98.0702 937.434 92.034H933.434ZM935.97 110H903.944V114H935.97V110ZM905.941 112.111C906.657 99.2145 907.016 87.028 907.016 75.552H903.016C903.016 86.9454 902.66 99.0575 901.947 111.889L905.941 112.111ZM907.016 75.552C907.016 64.0761 906.657 51.8007 905.941 38.7266L901.947 38.9454C902.66 51.9567 903.016 64.1585 903.016 75.552H907.016ZM903.853 40.8339C909.758 41.1023 914.305 41.238 917.478 41.238V37.238C914.397 37.238 909.922 37.1057 904.035 36.8381L903.853 40.8339ZM917.478 41.238C920.829 41.238 925.376 41.1024 931.106 40.8338L930.918 36.8382C925.213 37.1056 920.738 37.238 917.478 37.238V41.238ZM929.05 39.2231L932.936 58.9211L936.86 58.1469L932.974 38.4489L929.05 39.2231ZM936.82 59.0866C938.797 52.2098 941.828 47.3611 945.772 44.3024L943.32 41.1416C938.51 44.8722 935.108 50.5648 932.976 57.9814L936.82 59.0866ZM945.792 44.2868C949.801 41.0959 954.449 39.496 959.822 39.496V35.496C953.581 35.496 948.046 37.3801 943.3 41.1572L945.792 44.2868ZM959.822 39.496C964.874 39.496 969.144 40.6293 972.712 42.8186L974.804 39.4093C970.51 36.7747 965.49 35.496 959.822 35.496V39.496ZM972.741 42.8358C976.342 44.9639 979.015 47.8452 980.805 51.5064L984.399 49.7496C982.258 45.3708 979.035 41.9094 974.775 39.3921L972.741 42.8358ZM980.821 51.5382C982.717 55.247 983.684 59.4411 983.684 64.162H987.684C987.684 58.8776 986.597 54.0489 984.383 49.7178L980.821 51.5382ZM983.684 64.162V83.458H987.684V64.162H983.684ZM983.684 83.458C983.684 95.3577 983.907 104.919 984.358 112.125L988.35 111.875C987.907 104.788 987.684 95.3209 987.684 83.458H983.684ZM986.354 110H956.204V114H986.354V110ZM1024.32 78.5V76.5H1021.92L1022.35 78.8578L1024.32 78.5ZM1029.54 88.148L1028.2 89.6322L1028.23 89.6548L1028.25 89.6766L1029.54 88.148ZM1052.19 89.622L1052.98 91.4577L1053 91.4488L1053.02 91.4393L1052.19 89.622ZM1060.1 83.324L1060.98 81.5298L1059.47 80.7887L1058.48 82.1413L1060.1 83.324ZM1083.95 92.838L1085.78 93.6479L1086.66 91.6526L1084.6 90.9458L1083.95 92.838ZM1068.81 107.846L1069.71 109.63L1069.72 109.626L1068.81 107.846ZM1006.63 102.888L1005.23 104.32L1005.24 104.329L1005.25 104.337L1006.63 102.888ZM1006.63 47.948L1008.02 49.3886L1006.63 47.948ZM1064.12 42.052L1063.29 43.8736V43.8736L1064.12 42.052ZM1079.53 54.782L1077.85 55.8787L1077.86 55.8851L1077.86 55.8914L1079.53 54.782ZM1084.62 78.5V80.5H1086.33L1086.59 78.8041L1084.62 78.5ZM1031.29 60.276L1032.31 61.9957V61.9957L1031.29 60.276ZM1025.26 67.244L1023.4 66.5109L1022.32 69.244H1025.26V67.244ZM1056.88 67.244V69.244H1059.77L1058.75 66.5417L1056.88 67.244ZM1051.65 60.41L1050.46 62.0171L1050.48 62.0316L1050.5 62.0456L1051.65 60.41ZM1068 76.5H1024.32V80.5H1068V76.5ZM1022.35 78.8578C1023.14 83.1901 1025.08 86.8134 1028.2 89.6322L1030.88 86.6638C1028.47 84.48 1026.93 81.6712 1026.29 78.1422L1022.35 78.8578ZM1028.25 89.6766C1031.59 92.4922 1036.13 93.766 1041.6 93.766V89.766C1036.71 89.766 1033.21 88.6278 1030.83 86.6194L1028.25 89.6766ZM1041.6 93.766C1045.62 93.766 1049.42 93 1052.98 91.4577L1051.4 87.7863C1048.35 89.1027 1045.09 89.766 1041.6 89.766V93.766ZM1053.02 91.4393C1056.61 89.7925 1059.52 87.4864 1061.71 84.5067L1058.48 82.1413C1056.74 84.5216 1054.38 86.4142 1051.35 87.8046L1053.02 91.4393ZM1059.21 85.1182C1065.3 88.1188 1073.34 91.3216 1083.3 94.7302L1084.6 90.9458C1074.72 87.5651 1066.86 84.4252 1060.98 81.5298L1059.21 85.1182ZM1082.12 92.0282C1079.57 97.782 1074.9 102.479 1067.89 106.066L1069.72 109.626C1077.36 105.709 1082.79 100.401 1085.78 93.6479L1082.12 92.0282ZM1067.9 106.062C1061.04 109.534 1051.92 111.34 1040.4 111.34V115.34C1052.29 115.34 1062.1 113.484 1069.71 109.63L1067.9 106.062ZM1040.4 111.34C1025.47 111.34 1014.81 107.911 1008.01 101.439L1005.25 104.337C1013.1 111.801 1024.95 115.34 1040.4 115.34V111.34ZM1008.03 101.456C1001.23 94.8261 997.776 86.123 997.776 75.15H993.776C993.776 87.0463 997.559 96.8352 1005.23 104.32L1008.03 101.456ZM997.776 75.15C997.776 64.46 1001.22 55.9357 1008.02 49.3886L1005.24 46.5074C997.569 53.8963 993.776 63.5067 993.776 75.15H997.776ZM1008.02 49.3886C1014.73 42.928 1025.38 39.496 1040.4 39.496V35.496C1024.87 35.496 1013.01 39.032 1005.24 46.5074L1008.02 49.3886ZM1040.4 39.496C1049.29 39.496 1056.9 40.9784 1063.29 43.8736L1064.94 40.2304C1057.93 37.0509 1049.73 35.496 1040.4 35.496V39.496ZM1063.29 43.8736C1069.69 46.7751 1074.51 50.7859 1077.85 55.8787L1081.2 53.6853C1077.39 47.8794 1071.94 43.4035 1064.94 40.2304L1063.29 43.8736ZM1077.86 55.8914C1081.2 60.8959 1082.89 66.6671 1082.89 73.274H1086.89C1086.89 65.9449 1085 59.3881 1081.19 53.6726L1077.86 55.8914ZM1082.89 73.274C1082.89 75.5729 1082.8 77.1906 1082.64 78.1959L1086.59 78.8041C1086.8 77.4867 1086.89 75.6204 1086.89 73.274H1082.89ZM1084.62 76.5H1068V80.5H1084.62V76.5ZM1042.27 55.73C1037.57 55.73 1033.52 56.6229 1030.26 58.5563L1032.31 61.9957C1034.77 60.5344 1038.05 59.73 1042.27 59.73V55.73ZM1030.26 58.5563C1027.04 60.4682 1024.73 63.1287 1023.4 66.5109L1027.12 67.977C1028.11 65.4633 1029.81 63.4784 1032.31 61.9957L1030.26 58.5563ZM1025.26 69.244H1056.88V65.244H1025.26V69.244ZM1058.75 66.5417C1057.54 63.3205 1055.56 60.7117 1052.8 58.7744L1050.5 62.0456C1052.57 63.503 1054.07 65.4501 1055.01 67.9462L1058.75 66.5417ZM1052.84 58.8029C1050 56.6976 1046.42 55.73 1042.27 55.73V59.73C1045.81 59.73 1048.48 60.5491 1050.46 62.0171L1052.84 58.8029ZM1114.58 110.258L1114.04 112.184L1114.06 112.188L1114.07 112.192L1114.58 110.258ZM1092.87 100.61L1091.26 99.4263L1089.99 101.155L1091.81 102.301L1092.87 100.61ZM1106.94 81.448L1108.11 79.8229L1106.5 78.6699L1105.33 80.2643L1106.94 81.448ZM1121.82 88.416L1121.26 90.3357L1121.27 90.3397L1121.28 90.3435L1121.82 88.416ZM1146.07 89.22L1146.97 91.0089L1146.98 91.0018L1146.99 90.9944L1146.07 89.22ZM1139.37 80.376L1139.25 78.3794L1139.25 78.3799L1139.37 80.376ZM1135.89 80.644L1135.69 78.6539L1135.67 78.6554L1135.66 78.6572L1135.89 80.644ZM1102.12 77.026L1101.07 78.7272L1101.09 78.7383L1101.1 78.7491L1102.12 77.026ZM1105.87 44.062L1106.87 45.7933L1106.88 45.7888L1106.89 45.7843L1105.87 44.062ZM1159.87 40.578L1159.32 42.5001L1159.34 42.5042L1159.35 42.5081L1159.87 40.578ZM1179.04 49.556L1180.46 50.9641L1182.1 49.3076L1180.21 47.9374L1179.04 49.556ZM1163.63 65.1L1162.69 66.8698L1164 67.5592L1165.05 66.5081L1163.63 65.1ZM1149.29 59.472L1148.77 61.4051L1148.8 61.4112L1148.82 61.4168L1149.29 59.472ZM1127.98 59.606L1127 57.861L1127.98 59.606ZM1125.97 66.842L1124.72 68.4037L1124.76 68.4324L1124.8 68.4595L1125.97 66.842ZM1136.02 67.512L1135.88 65.5167L1135.85 65.5188L1135.82 65.5219L1136.02 67.512ZM1172.2 71.532L1173.25 69.8277L1172.2 71.532ZM1168.58 106.908L1169.58 108.644L1169.58 108.64L1169.59 108.636L1168.58 106.908ZM1137.5 111.34C1130.18 111.34 1122.71 110.338 1115.09 108.324L1114.07 112.192C1122 114.287 1129.81 115.34 1137.5 115.34V111.34ZM1115.12 108.332C1107.62 106.24 1100.57 103.104 1093.94 98.919L1091.81 102.301C1098.76 106.692 1106.17 109.988 1114.04 112.184L1115.12 108.332ZM1094.49 101.794L1108.56 82.6317L1105.33 80.2643L1091.26 99.4263L1094.49 101.794ZM1105.78 83.0731C1110.1 86.1757 1115.27 88.5871 1121.26 90.3357L1122.38 86.4963C1116.75 84.8503 1112 82.6163 1108.11 79.8229L1105.78 83.0731ZM1121.28 90.3435C1127.2 91.9806 1132.39 92.828 1136.83 92.828V88.828C1132.87 88.828 1128.05 88.0674 1122.35 86.4885L1121.28 90.3435ZM1136.83 92.828C1140.97 92.828 1144.42 92.2835 1146.97 91.0089L1145.18 87.4312C1143.44 88.3005 1140.72 88.828 1136.83 88.828V92.828ZM1146.99 90.9944C1149.58 89.6489 1151.42 87.6235 1151.42 84.798H1147.42C1147.42 85.5458 1147.03 86.4684 1145.15 87.4456L1146.99 90.9944ZM1151.42 84.798C1151.42 82.788 1150.63 81.0581 1149.01 79.848L1146.61 83.048C1147.14 83.4459 1147.42 83.9493 1147.42 84.798H1151.42ZM1149.01 79.848C1147.48 78.6986 1145.53 78.242 1143.39 78.242V82.242C1145 82.242 1146 82.5894 1146.61 83.048L1149.01 79.848ZM1143.39 78.242C1142.18 78.242 1140.8 78.2885 1139.25 78.3794L1139.49 82.3725C1140.98 82.2849 1142.28 82.242 1143.39 82.242V78.242ZM1139.25 78.3799C1137.81 78.47 1136.62 78.5611 1135.69 78.6539L1136.09 82.6341C1136.95 82.5482 1138.08 82.4607 1139.5 82.3721L1139.25 78.3799ZM1135.66 78.6572C1131.09 79.184 1126.39 79.448 1121.55 79.448V83.448C1126.54 83.448 1131.39 83.176 1136.12 82.6308L1135.66 78.6572ZM1121.55 79.448C1113.83 79.448 1107.74 78.0147 1103.13 75.3029L1101.1 78.7491C1106.51 81.9333 1113.37 83.448 1121.55 83.448V79.448ZM1103.17 75.3248C1098.96 72.7211 1096.75 68.5248 1096.75 62.286H1092.75C1092.75 69.6258 1095.45 75.2562 1101.07 78.7272L1103.17 75.3248ZM1096.75 62.286C1096.75 55.2131 1100.01 49.7628 1106.87 45.7933L1104.87 42.3307C1096.9 46.9372 1092.75 53.6362 1092.75 62.286H1096.75ZM1106.89 45.7843C1113.85 41.6728 1124.33 39.496 1138.57 39.496V35.496C1124.04 35.496 1112.72 37.6965 1104.85 42.3397L1106.89 45.7843ZM1138.57 39.496C1145.43 39.496 1152.34 40.4943 1159.32 42.5001L1160.43 38.6559C1153.11 36.5523 1145.82 35.496 1138.57 35.496V39.496ZM1159.35 42.5081C1166.37 44.4159 1172.54 47.31 1177.86 51.1746L1180.21 47.9374C1174.46 43.762 1167.85 40.6707 1160.4 38.6479L1159.35 42.5081ZM1177.62 48.1479L1162.21 63.6919L1165.05 66.5081L1180.46 50.9641L1177.62 48.1479ZM1164.56 63.3302C1159.35 60.5913 1154.42 58.6463 1149.75 57.5272L1148.82 61.4168C1153.09 62.4417 1157.71 64.2487 1162.69 66.8698L1164.56 63.3302ZM1149.8 57.5389C1145.26 56.3338 1140.66 55.73 1136.02 55.73V59.73C1140.31 59.73 1144.56 60.2876 1148.77 61.4051L1149.8 57.5389ZM1136.02 55.73C1132.63 55.73 1129.6 56.4098 1127 57.861L1128.96 61.351C1130.83 60.3008 1133.16 59.73 1136.02 59.73V55.73ZM1127 57.861C1124.54 59.2422 1122.63 61.1987 1122.63 63.894H1126.63C1126.63 63.3733 1126.96 62.4711 1128.96 61.351L1127 57.861ZM1122.63 63.894C1122.63 65.6875 1123.31 67.2709 1124.72 68.4037L1127.22 65.2803C1126.85 64.9838 1126.63 64.6018 1126.63 63.894H1122.63ZM1124.8 68.4595C1126.2 69.479 1127.89 69.914 1129.72 69.914V65.914C1128.52 65.914 1127.71 65.6344 1127.15 65.2245L1124.8 68.4595ZM1129.72 69.914C1131.34 69.914 1133.52 69.7725 1136.22 69.5021L1135.82 65.5219C1133.17 65.7875 1131.14 65.914 1129.72 65.914V69.914ZM1136.16 69.5073C1142.67 69.0613 1147.48 68.842 1150.63 68.842V64.842C1147.34 64.842 1142.42 65.0694 1135.88 65.5167L1136.16 69.5073ZM1150.63 68.842C1159.74 68.842 1166.51 70.3822 1171.16 73.2363L1173.25 69.8277C1167.71 66.4285 1160.1 64.842 1150.63 64.842V68.842ZM1171.16 73.2363C1175.6 75.9669 1177.84 80.0692 1177.84 85.87H1181.84C1181.84 78.8068 1178.99 73.3504 1173.25 69.8277L1171.16 73.2363ZM1177.84 85.87C1177.84 94.9016 1174.39 101.207 1167.58 105.18L1169.59 108.636C1177.79 103.854 1181.84 96.1344 1181.84 85.87H1177.84ZM1167.59 105.172C1160.51 109.219 1150.54 111.34 1137.5 111.34V115.34C1150.9 115.34 1161.65 113.173 1169.58 108.644L1167.59 105.172ZM1209.59 110.258L1209.05 112.184L1209.06 112.188L1209.07 112.192L1209.59 110.258ZM1187.88 100.61L1186.27 99.4263L1185 101.155L1186.81 102.301L1187.88 100.61ZM1201.95 81.448L1203.11 79.8229L1201.51 78.6699L1200.34 80.2643L1201.95 81.448ZM1216.82 88.416L1216.26 90.3357L1216.27 90.3397L1216.29 90.3435L1216.82 88.416ZM1241.08 89.22L1241.97 91.0089L1241.98 91.0018L1242 90.9944L1241.08 89.22ZM1234.38 80.376L1234.26 78.3794L1234.25 78.3799L1234.38 80.376ZM1230.89 80.644L1230.69 78.6539L1230.68 78.6554L1230.66 78.6572L1230.89 80.644ZM1197.12 77.026L1196.07 78.7272L1196.09 78.7383L1196.11 78.7491L1197.12 77.026ZM1200.88 44.062L1201.88 45.7933L1201.88 45.7888L1201.89 45.7843L1200.88 44.062ZM1254.88 40.578L1254.32 42.5001L1254.34 42.5042L1254.35 42.5081L1254.88 40.578ZM1274.04 49.556L1275.46 50.9641L1277.1 49.3076L1275.21 47.9374L1274.04 49.556ZM1258.63 65.1L1257.7 66.8698L1259.01 67.5592L1260.05 66.5081L1258.63 65.1ZM1244.29 59.472L1243.78 61.4051L1243.8 61.4112L1243.82 61.4168L1244.29 59.472ZM1222.99 59.606L1222.01 57.861L1222.99 59.606ZM1220.98 66.842L1219.73 68.4037L1219.76 68.4324L1219.8 68.4595L1220.98 66.842ZM1231.03 67.512L1230.89 65.5167L1230.86 65.5188L1230.83 65.5219L1231.03 67.512ZM1267.21 71.532L1268.25 69.8277L1267.21 71.532ZM1263.59 106.908L1264.58 108.644L1264.59 108.64L1264.6 108.636L1263.59 106.908ZM1232.5 111.34C1225.18 111.34 1217.71 110.338 1210.1 108.324L1209.07 112.192C1217 114.287 1224.81 115.34 1232.5 115.34V111.34ZM1210.12 108.332C1202.63 106.24 1195.57 103.104 1188.95 98.919L1186.81 102.301C1193.76 106.692 1201.18 109.988 1209.05 112.184L1210.12 108.332ZM1189.49 101.794L1203.56 82.6317L1200.34 80.2643L1186.27 99.4263L1189.49 101.794ZM1200.78 83.0731C1205.11 86.1757 1210.28 88.5871 1216.26 90.3357L1217.38 86.4963C1211.75 84.8503 1207.01 82.6163 1203.11 79.8229L1200.78 83.0731ZM1216.29 90.3435C1222.2 91.9806 1227.39 92.828 1231.83 92.828V88.828C1227.87 88.828 1223.06 88.0674 1217.36 86.4885L1216.29 90.3435ZM1231.83 92.828C1235.98 92.828 1239.42 92.2835 1241.97 91.0089L1240.18 87.4312C1238.44 88.3005 1235.72 88.828 1231.83 88.828V92.828ZM1242 90.9944C1244.59 89.6489 1246.43 87.6235 1246.43 84.798H1242.43C1242.43 85.5458 1242.03 86.4684 1240.15 87.4456L1242 90.9944ZM1246.43 84.798C1246.43 82.788 1245.63 81.0581 1244.02 79.848L1241.62 83.048C1242.15 83.4459 1242.43 83.9493 1242.43 84.798H1246.43ZM1244.02 79.848C1242.48 78.6986 1240.54 78.242 1238.4 78.242V82.242C1240.01 82.242 1241.01 82.5894 1241.62 83.048L1244.02 79.848ZM1238.4 78.242C1237.19 78.242 1235.8 78.2885 1234.26 78.3794L1234.49 82.3725C1235.98 82.2849 1237.28 82.242 1238.4 82.242V78.242ZM1234.25 78.3799C1232.81 78.47 1231.62 78.5611 1230.69 78.6539L1231.09 82.6341C1231.95 82.5482 1233.08 82.4607 1234.5 82.3721L1234.25 78.3799ZM1230.66 78.6572C1226.1 79.184 1221.39 79.448 1216.55 79.448V83.448C1221.54 83.448 1226.4 83.176 1231.12 82.6308L1230.66 78.6572ZM1216.55 79.448C1208.83 79.448 1202.74 78.0147 1198.14 75.3029L1196.11 78.7491C1201.51 81.9333 1208.37 83.448 1216.55 83.448V79.448ZM1198.18 75.3248C1193.96 72.7211 1191.75 68.5248 1191.75 62.286H1187.75C1187.75 69.6258 1190.46 75.2562 1196.07 78.7272L1198.18 75.3248ZM1191.75 62.286C1191.75 55.2131 1195.01 49.7628 1201.88 45.7933L1199.87 42.3307C1191.91 46.9372 1187.75 53.6362 1187.75 62.286H1191.75ZM1201.89 45.7843C1208.86 41.6728 1219.33 39.496 1233.57 39.496V35.496C1219.04 35.496 1207.72 37.6965 1199.86 42.3397L1201.89 45.7843ZM1233.57 39.496C1240.43 39.496 1247.35 40.4943 1254.32 42.5001L1255.43 38.6559C1248.11 36.5523 1240.83 35.496 1233.57 35.496V39.496ZM1254.35 42.5081C1261.38 44.4159 1267.54 47.31 1272.86 51.1746L1275.21 47.9374C1269.46 43.762 1262.85 40.6707 1255.4 38.6479L1254.35 42.5081ZM1272.62 48.1479L1257.21 63.6919L1260.05 66.5081L1275.46 50.9641L1272.62 48.1479ZM1259.56 63.3302C1254.36 60.5913 1249.42 58.6463 1244.76 57.5272L1243.82 61.4168C1248.1 62.4417 1252.72 64.2487 1257.7 66.8698L1259.56 63.3302ZM1244.8 57.5389C1240.26 56.3338 1235.67 55.73 1231.03 55.73V59.73C1235.32 59.73 1239.57 60.2876 1243.78 61.4051L1244.8 57.5389ZM1231.03 55.73C1227.63 55.73 1224.6 56.4098 1222.01 57.861L1223.96 61.351C1225.84 60.3008 1228.17 59.73 1231.03 59.73V55.73ZM1222.01 57.861C1219.54 59.2422 1217.64 61.1987 1217.64 63.894H1221.64C1221.64 63.3733 1221.96 62.4711 1223.96 61.351L1222.01 57.861ZM1217.64 63.894C1217.64 65.6875 1218.31 67.2709 1219.73 68.4037L1222.22 65.2803C1221.85 64.9838 1221.64 64.6018 1221.64 63.894H1217.64ZM1219.8 68.4595C1221.2 69.479 1222.89 69.914 1224.73 69.914V65.914C1223.52 65.914 1222.72 65.6344 1222.15 65.2245L1219.8 68.4595ZM1224.73 69.914C1226.34 69.914 1228.52 69.7725 1231.22 69.5021L1230.83 65.5219C1228.17 65.7875 1226.15 65.914 1224.73 65.914V69.914ZM1231.16 69.5073C1237.67 69.0613 1242.49 68.842 1245.63 68.842V64.842C1242.34 64.842 1237.42 65.0694 1230.89 65.5167L1231.16 69.5073ZM1245.63 68.842C1254.74 68.842 1261.51 70.3822 1266.16 73.2363L1268.25 69.8277C1262.72 66.4285 1255.1 64.842 1245.63 64.842V68.842ZM1266.16 73.2363C1270.61 75.9669 1272.84 80.0692 1272.84 85.87H1276.84C1276.84 78.8068 1273.99 73.3504 1268.25 69.8277L1266.16 73.2363ZM1272.84 85.87C1272.84 94.9016 1269.39 101.207 1262.58 105.18L1264.6 108.636C1272.79 103.854 1276.84 96.1344 1276.84 85.87H1272.84ZM1262.6 105.172C1255.51 109.219 1245.54 111.34 1232.5 111.34V115.34C1245.9 115.34 1256.65 113.173 1264.58 108.644L1262.6 105.172Z" fill="white" mask="url(#path-1-outside-1_85_290)"/>
</g>
</svg>
