<svg width="158" height="17" viewBox="0 0 158 17" fill="none" xmlns="http://www.w3.org/2000/svg">
<path d="M29.388 12.25V5.95H30.886V12.25H29.388ZM26.91 9.8V8.4H33.364V9.8H26.91ZM36.3751 14L40.4211 4.928L40.8971 5.74H35.3391L36.2071 4.858V7.406H34.5131V4.2H42.1291V5.418L38.3211 14H36.3751ZM49.3918 16.716C48.8411 15.8667 48.4165 14.8867 48.1178 13.776C47.8285 12.656 47.6838 11.452 47.6838 10.164C47.6838 8.876 47.8285 7.672 48.1178 6.552C48.4165 5.42267 48.8411 4.44267 49.3918 3.612H51.0578C50.4885 4.63867 50.0685 5.68867 49.7978 6.762C49.5365 7.826 49.4058 8.96 49.4058 10.164C49.4058 11.368 49.5365 12.5067 49.7978 13.58C50.0685 14.644 50.4885 15.6893 51.0578 16.716H49.3918ZM51.5639 11.774V10.514L56.3939 4.2H58.3399L53.5799 10.514L52.6699 10.234H60.4399V11.774H51.5639ZM56.9399 14V11.774L56.9959 10.234V8.26H58.7039V14H56.9399ZM64.4415 4.06C65.3375 4.06 66.0982 4.25133 66.7235 4.634C67.3582 5.00733 67.8435 5.55333 68.1795 6.272C68.5155 6.99067 68.6835 7.87733 68.6835 8.932C68.6835 10.052 68.4782 10.9993 68.0675 11.774C67.6662 12.5487 67.1062 13.1367 66.3875 13.538C65.6688 13.9393 64.8335 14.14 63.8815 14.14C63.3868 14.14 62.9155 14.0887 62.4675 13.986C62.0195 13.8833 61.6322 13.7247 61.3055 13.51L61.9775 12.138C62.2482 12.3153 62.5422 12.4413 62.8595 12.516C63.1768 12.5813 63.5035 12.614 63.8395 12.614C64.7635 12.614 65.4962 12.3293 66.0375 11.76C66.5788 11.1907 66.8495 10.3507 66.8495 9.24C66.8495 9.06267 66.8448 8.85733 66.8355 8.624C66.8262 8.38133 66.7935 8.13867 66.7375 7.896L67.2975 8.512C67.1388 8.89467 66.9102 9.21667 66.6115 9.478C66.3128 9.73 65.9628 9.92133 65.5615 10.052C65.1602 10.1827 64.7168 10.248 64.2315 10.248C63.5968 10.248 63.0228 10.1267 62.5095 9.884C62.0055 9.632 61.6042 9.282 61.3055 8.834C61.0068 8.37667 60.8575 7.84467 60.8575 7.238C60.8575 6.58467 61.0162 6.02467 61.3335 5.558C61.6508 5.082 62.0802 4.71333 62.6215 4.452C63.1722 4.19067 63.7788 4.06 64.4415 4.06ZM64.5395 5.488C64.1662 5.488 63.8348 5.558 63.5455 5.698C63.2562 5.82867 63.0275 6.02 62.8595 6.272C62.7008 6.51467 62.6215 6.80867 62.6215 7.154C62.6215 7.66733 62.7988 8.07333 63.1535 8.372C63.5082 8.67067 63.9842 8.82 64.5815 8.82C64.9735 8.82 65.3188 8.75 65.6175 8.61C65.9162 8.46067 66.1495 8.26 66.3175 8.008C66.4855 7.74667 66.5695 7.45733 66.5695 7.14C66.5695 6.832 66.4902 6.55667 66.3315 6.314C66.1728 6.062 65.9442 5.86133 65.6455 5.712C65.3468 5.56267 64.9782 5.488 64.5395 5.488ZM73.1628 14.14C72.4722 14.14 71.7955 14.042 71.1328 13.846C70.4795 13.6407 69.9288 13.3607 69.4808 13.006L70.2508 11.592C70.6055 11.8813 71.0348 12.1147 71.5388 12.292C72.0522 12.4693 72.5842 12.558 73.1348 12.558C73.7788 12.558 74.2828 12.4227 74.6468 12.152C75.0202 11.8813 75.2068 11.5173 75.2068 11.06C75.2068 10.752 75.1275 10.4813 74.9688 10.248C74.8195 10.0147 74.5488 9.83733 74.1568 9.716C73.7742 9.59467 73.2468 9.534 72.5748 9.534H70.2088L70.7128 4.2H76.4668V5.726H71.3848L72.3368 4.858L71.9588 8.848L71.0068 7.994H72.9808C73.9515 7.994 74.7308 8.12467 75.3188 8.386C75.9162 8.638 76.3502 8.99267 76.6208 9.45C76.9008 9.898 77.0408 10.4113 77.0408 10.99C77.0408 11.5593 76.9008 12.082 76.6208 12.558C76.3408 13.034 75.9115 13.4167 75.3328 13.706C74.7635 13.9953 74.0402 14.14 73.1628 14.14ZM79.4486 16.716H77.7826C78.3613 15.6893 78.7813 14.644 79.0426 13.58C79.3133 12.5067 79.4486 11.368 79.4486 10.164C79.4486 8.96 79.3133 7.826 79.0426 6.762C78.7813 5.68867 78.3613 4.63867 77.7826 3.612H79.4486C80.0086 4.44267 80.4333 5.42267 80.7226 6.552C81.0119 7.672 81.1566 8.876 81.1566 10.164C81.1566 11.452 81.0119 12.656 80.7226 13.776C80.4333 14.8867 80.0086 15.8667 79.4486 16.716ZM90.7609 14.14C89.9489 14.14 89.2443 14.0187 88.6469 13.776C88.0496 13.5333 87.5876 13.1927 87.2609 12.754C86.9343 12.306 86.7709 11.7833 86.7709 11.186C86.7709 10.5887 86.9296 10.0847 87.2469 9.674C87.5643 9.26333 88.0216 8.95067 88.6189 8.736C89.2163 8.52133 89.9303 8.414 90.7609 8.414C91.5916 8.414 92.3056 8.52133 92.9029 8.736C93.5096 8.95067 93.9716 9.268 94.2889 9.688C94.6156 10.0987 94.7789 10.598 94.7789 11.186C94.7789 11.7833 94.6109 12.306 94.2749 12.754C93.9483 13.1927 93.4816 13.5333 92.8749 13.776C92.2776 14.0187 91.5729 14.14 90.7609 14.14ZM90.7609 12.712C91.4329 12.712 91.9649 12.572 92.3569 12.292C92.7489 12.012 92.9449 11.6247 92.9449 11.13C92.9449 10.6447 92.7489 10.262 92.3569 9.982C91.9649 9.702 91.4329 9.562 90.7609 9.562C90.0889 9.562 89.5616 9.702 89.1789 9.982C88.7963 10.262 88.6049 10.6447 88.6049 11.13C88.6049 11.6247 88.7963 12.012 89.1789 12.292C89.5616 12.572 90.0889 12.712 90.7609 12.712ZM90.7609 9.366C90.0049 9.366 89.3563 9.268 88.8149 9.072C88.2736 8.86667 87.8536 8.57267 87.5549 8.19C87.2656 7.798 87.1209 7.33133 87.1209 6.79C87.1209 6.23 87.2703 5.74933 87.5689 5.348C87.8769 4.93733 88.3063 4.62 88.8569 4.396C89.4076 4.172 90.0423 4.06 90.7609 4.06C91.4889 4.06 92.1283 4.172 92.6789 4.396C93.2296 4.62 93.6589 4.93733 93.9669 5.348C94.2749 5.74933 94.4289 6.23 94.4289 6.79C94.4289 7.33133 94.2796 7.798 93.9809 8.19C93.6916 8.57267 93.2716 8.86667 92.7209 9.072C92.1703 9.268 91.5169 9.366 90.7609 9.366ZM90.7609 8.246C91.3396 8.246 91.7969 8.12467 92.1329 7.882C92.4689 7.63 92.6369 7.294 92.6369 6.874C92.6369 6.43533 92.4643 6.09467 92.1189 5.852C91.7736 5.60933 91.3209 5.488 90.7609 5.488C90.2009 5.488 89.7529 5.60933 89.4169 5.852C89.0809 6.09467 88.9129 6.43533 88.9129 6.874C88.9129 7.294 89.0763 7.63 89.4029 7.882C89.7389 8.12467 90.1916 8.246 90.7609 8.246ZM99.2078 14.14C98.5171 14.14 97.8404 14.042 97.1778 13.846C96.5244 13.6407 95.9738 13.3607 95.5258 13.006L96.2958 11.592C96.6504 11.8813 97.0798 12.1147 97.5838 12.292C98.0971 12.4693 98.6291 12.558 99.1798 12.558C99.8238 12.558 100.328 12.4227 100.692 12.152C101.065 11.8813 101.252 11.5173 101.252 11.06C101.252 10.752 101.172 10.4813 101.014 10.248C100.864 10.0147 100.594 9.83733 100.202 9.716C99.8191 9.59467 99.2918 9.534 98.6198 9.534H96.2538L96.7578 4.2H102.512V5.726H97.4298L98.3818 4.858L98.0038 8.848L97.0518 7.994H99.0258C99.9964 7.994 100.776 8.12467 101.364 8.386C101.961 8.638 102.395 8.99267 102.666 9.45C102.946 9.898 103.086 10.4113 103.086 10.99C103.086 11.5593 102.946 12.082 102.666 12.558C102.386 13.034 101.956 13.4167 101.378 13.706C100.808 13.9953 100.085 14.14 99.2078 14.14ZM107.44 4.06C108.336 4.06 109.096 4.25133 109.722 4.634C110.356 5.00733 110.842 5.55333 111.178 6.272C111.514 6.99067 111.682 7.87733 111.682 8.932C111.682 10.052 111.476 10.9993 111.066 11.774C110.664 12.5487 110.104 13.1367 109.386 13.538C108.667 13.9393 107.832 14.14 106.88 14.14C106.385 14.14 105.914 14.0887 105.466 13.986C105.018 13.8833 104.63 13.7247 104.304 13.51L104.976 12.138C105.246 12.3153 105.54 12.4413 105.858 12.516C106.175 12.5813 106.502 12.614 106.838 12.614C107.762 12.614 108.494 12.3293 109.036 11.76C109.577 11.1907 109.848 10.3507 109.848 9.24C109.848 9.06267 109.843 8.85733 109.834 8.624C109.824 8.38133 109.792 8.13867 109.736 7.896L110.296 8.512C110.137 8.89467 109.908 9.21667 109.61 9.478C109.311 9.73 108.961 9.92133 108.56 10.052C108.158 10.1827 107.715 10.248 107.23 10.248C106.595 10.248 106.021 10.1267 105.508 9.884C105.004 9.632 104.602 9.282 104.304 8.834C104.005 8.37667 103.856 7.84467 103.856 7.238C103.856 6.58467 104.014 6.02467 104.332 5.558C104.649 5.082 105.078 4.71333 105.62 4.452C106.17 4.19067 106.777 4.06 107.44 4.06ZM107.538 5.488C107.164 5.488 106.833 5.558 106.544 5.698C106.254 5.82867 106.026 6.02 105.858 6.272C105.699 6.51467 105.62 6.80867 105.62 7.154C105.62 7.66733 105.797 8.07333 106.152 8.372C106.506 8.67067 106.982 8.82 107.58 8.82C107.972 8.82 108.317 8.75 108.616 8.61C108.914 8.46067 109.148 8.26 109.316 8.008C109.484 7.74667 109.568 7.45733 109.568 7.14C109.568 6.832 109.488 6.55667 109.33 6.314C109.171 6.062 108.942 5.86133 108.644 5.712C108.345 5.56267 107.976 5.488 107.538 5.488ZM113.135 10.836V9.38H116.985V10.836H113.135ZM122.524 14.14C121.75 14.14 121.05 13.944 120.424 13.552C119.808 13.16 119.323 12.5907 118.968 11.844C118.614 11.088 118.436 10.1733 118.436 9.1C118.436 8.02667 118.614 7.11667 118.968 6.37C119.323 5.614 119.808 5.04 120.424 4.648C121.05 4.256 121.75 4.06 122.524 4.06C123.308 4.06 124.008 4.256 124.624 4.648C125.24 5.04 125.726 5.614 126.08 6.37C126.444 7.11667 126.626 8.02667 126.626 9.1C126.626 10.1733 126.444 11.088 126.08 11.844C125.726 12.5907 125.24 13.16 124.624 13.552C124.008 13.944 123.308 14.14 122.524 14.14ZM122.524 12.558C122.982 12.558 123.378 12.4367 123.714 12.194C124.05 11.942 124.312 11.5593 124.498 11.046C124.694 10.5327 124.792 9.884 124.792 9.1C124.792 8.30667 124.694 7.658 124.498 7.154C124.312 6.64067 124.05 6.26267 123.714 6.02C123.378 5.768 122.982 5.642 122.524 5.642C122.086 5.642 121.694 5.768 121.348 6.02C121.012 6.26267 120.746 6.64067 120.55 7.154C120.364 7.658 120.27 8.30667 120.27 9.1C120.27 9.884 120.364 10.5327 120.55 11.046C120.746 11.5593 121.012 11.942 121.348 12.194C121.694 12.4367 122.086 12.558 122.524 12.558ZM130.8 14.14C130.109 14.14 129.432 14.042 128.77 13.846C128.116 13.6407 127.566 13.3607 127.118 13.006L127.902 11.592C128.256 11.8813 128.686 12.1147 129.19 12.292C129.694 12.4693 130.221 12.558 130.772 12.558C131.425 12.558 131.934 12.4273 132.298 12.166C132.662 11.8953 132.844 11.5313 132.844 11.074C132.844 10.626 132.676 10.2713 132.34 10.01C132.004 9.74867 131.462 9.618 130.716 9.618H129.82V8.372L132.62 5.04L132.858 5.726H127.594V4.2H134.272V5.418L131.472 8.75L130.52 8.19H131.066C132.27 8.19 133.17 8.46067 133.768 9.002C134.374 9.534 134.678 10.22 134.678 11.06C134.678 11.6107 134.538 12.1193 134.258 12.586C133.978 13.0527 133.548 13.4307 132.97 13.72C132.4 14 131.677 14.14 130.8 14.14ZM136.022 10.836V9.38H139.872V10.836H136.022ZM142.756 14L146.802 4.928L147.278 5.74H141.72L142.588 4.858V7.406H140.894V4.2H148.51V5.418L144.702 14H142.756ZM149.51 14V12.782L153.402 9.086C153.728 8.778 153.971 8.50733 154.13 8.274C154.288 8.04067 154.391 7.826 154.438 7.63C154.494 7.42467 154.522 7.23333 154.522 7.056C154.522 6.608 154.368 6.26267 154.06 6.02C153.752 5.768 153.299 5.642 152.702 5.642C152.226 5.642 151.792 5.726 151.4 5.894C151.017 6.062 150.686 6.31867 150.406 6.664L149.132 5.684C149.514 5.17067 150.028 4.774 150.672 4.494C151.325 4.20467 152.053 4.06 152.856 4.06C153.565 4.06 154.181 4.17667 154.704 4.41C155.236 4.634 155.642 4.956 155.922 5.376C156.211 5.796 156.356 6.29533 156.356 6.874C156.356 7.19133 156.314 7.50867 156.23 7.826C156.146 8.134 155.987 8.46067 155.754 8.806C155.52 9.15133 155.18 9.53867 154.732 9.968L151.386 13.146L151.008 12.46H156.734V14H149.51Z" fill="white"/>
<path d="M5.04492 11.1611C7.02051 13.1367 9.41992 14.6611 11.3818 14.6611C12.2637 14.6611 13.0361 14.3535 13.6582 13.6699C14.0205 13.2666 14.2461 12.7949 14.2461 12.3301C14.2461 11.9883 14.1162 11.6602 13.7949 11.4277L11.6963 9.9375C11.375 9.71875 11.1084 9.60938 10.8623 9.60938C10.5547 9.60938 10.2744 9.78711 9.95996 10.0947L9.47461 10.5732C9.39941 10.6484 9.30371 10.6826 9.21484 10.6826C9.1123 10.6826 9.00977 10.6416 8.94141 10.6074C8.51758 10.3818 7.79297 9.75977 7.11621 9.08984C6.44629 8.41992 5.82422 7.69531 5.60547 7.27148C5.57129 7.19629 5.53027 7.10059 5.53027 6.99805C5.53027 6.90918 5.55762 6.82031 5.63281 6.74512L6.11816 6.24609C6.41895 5.93164 6.60352 5.6582 6.60352 5.34375C6.60352 5.09766 6.4873 4.83105 6.26172 4.50977L4.79199 2.43848C4.55273 2.11035 4.21777 1.9668 3.84863 1.9668C3.39746 1.9668 2.93262 2.17188 2.5293 2.56152C1.86621 3.19727 1.57227 3.9834 1.57227 4.85156C1.57227 6.81348 3.06934 9.19238 5.04492 11.1611Z" fill="white"/>
</svg>
